<?xml version="1.0" standalone="no"?>
<!DOCTYPE svg PUBLIC "-//W3C//DTD SVG 20010904//EN"
 "http://www.w3.org/TR/2001/REC-SVG-20010904/DTD/svg10.dtd">
<svg version="1.0" xmlns="http://www.w3.org/2000/svg"
 width="400.000000pt" height="400.000000pt" viewBox="0 0 400.000000 400.000000"
 preserveAspectRatio="xMidYMid meet">

<g transform="translate(0.000000,400.000000) scale(0.100000,-0.100000)"
fill="#7b0180" stroke="none">
<path d="M1611 3865 c-120 -27 -276 -120 -338 -202 -15 -19 -52 -47 -83 -63
-109 -55 -205 -188 -244 -335 -27 -101 -49 -366 -43 -510 7 -174 38 -315 122
-555 39 -113 58 -240 50 -334 -10 -115 -45 -224 -134 -419 -97 -210 -115 -269
-115 -369 0 -68 5 -85 37 -152 33 -66 55 -92 182 -212 l145 -137 -94 -51
c-251 -140 -353 -257 -389 -448 -14 -75 -14 -78 4 -78 11 0 19 7 19 15 0 18 8
18 40 0 14 -8 34 -14 45 -14 11 0 -4 9 -33 20 -48 19 -52 22 -46 47 4 15 8 30
10 33 2 4 31 -4 65 -18 34 -14 90 -30 125 -35 52 -9 64 -14 64 -29 0 -12 7
-19 19 -19 17 0 19 5 14 37 -11 71 -62 218 -94 268 l-31 49 28 24 c48 39 206
129 339 193 l125 61 52 -47 c65 -58 187 -118 303 -147 75 -19 116 -23 250 -23
154 0 163 2 248 32 102 36 178 80 251 145 l52 46 155 -77 c146 -72 369 -209
397 -244 12 -13 8 -21 -27 -56 -46 -46 -72 -92 -95 -170 -21 -73 -21 -91 4
-91 15 0 20 7 20 25 0 30 -3 29 67 9 30 -9 56 -14 59 -12 2 3 -23 12 -56 21
-58 16 -69 28 -52 54 6 9 24 8 76 -8 90 -27 95 -19 6 10 -42 13 -70 28 -70 36
0 24 16 25 76 5 32 -11 63 -19 69 -17 5 2 -17 12 -50 22 -73 23 -82 30 -66 49
11 13 19 13 63 -5 28 -11 56 -18 62 -16 6 2 -15 12 -46 22 -61 20 -67 25 -44
44 10 9 24 7 58 -8 40 -17 46 -24 58 -65 7 -25 15 -72 19 -104 5 -45 10 -58
25 -60 17 -4 18 1 11 55 -3 32 -14 87 -22 122 -22 86 -89 158 -248 263 -131
87 -493 270 -539 272 -71 4 -144 172 -179 414 l-14 93 82 82 c149 150 272 360
358 610 6 15 10 16 27 5 35 -22 69 10 138 134 90 159 104 199 103 282 -3 143
-50 254 -105 244 -23 -5 -23 -3 -29 111 -3 64 -13 145 -22 181 -22 82 -72 192
-116 250 -18 25 -43 75 -56 113 -40 118 -97 189 -185 230 -48 22 -48 22 -48
72 0 98 -75 202 -176 245 -58 25 -180 50 -246 50 -29 0 -82 9 -117 20 -87 27
-191 33 -270 15z m203 -36 c88 -16 141 -43 170 -86 14 -21 26 -43 26 -49 0 -7
-19 -15 -42 -19 -40 -7 -43 -6 -82 37 -58 63 -77 76 -143 104 -56 23 -57 24
-22 24 19 0 61 -5 93 -11z m-59 -48 c35 -17 77 -47 94 -67 55 -62 32 -76 -31
-18 -55 49 -147 91 -220 99 -81 10 -56 28 30 22 44 -3 83 -14 127 -36z m367
-28 c91 -40 162 -129 183 -230 4 -20 3 -33 -3 -33 -6 0 -36 30 -68 66 -58 66
-102 96 -161 108 -23 5 -34 15 -42 37 -6 16 -20 44 -32 61 l-22 30 44 -7 c24
-4 70 -18 101 -32z m-419 -11 c27 -12 67 -36 89 -54 l40 -32 -48 -23 c-27 -13
-67 -41 -89 -63 -23 -22 -46 -40 -53 -40 -7 0 -36 -12 -64 -26 l-50 -26 -32
30 c-42 39 -91 67 -153 87 -29 10 -53 20 -53 24 0 7 42 48 102 100 44 38 95
52 183 48 54 -2 96 -10 128 -25z m522 4 c60 -25 107 -69 131 -121 24 -49 33
-135 15 -135 -23 0 -41 14 -41 31 0 48 -44 132 -96 185 -30 30 -52 54 -49 54
3 0 21 -7 40 -14z m-840 -196 c33 -15 76 -41 95 -58 29 -25 33 -33 22 -43 -10
-11 -16 -11 -30 -1 -9 7 -45 26 -78 43 -51 24 -75 30 -131 30 -38 0 -82 -3
-99 -7 -26 -7 -28 -6 -16 9 8 9 37 28 65 42 60 29 81 28 172 -15z m558 -202
c3 -128 11 -268 17 -312 6 -43 9 -81 6 -83 -2 -3 -14 -2 -26 2 -46 15 -110
203 -110 325 0 110 59 300 93 300 12 0 15 -42 20 -232z m111 173 c66 -147 86
-344 51 -498 l-17 -73 -43 0 c-39 0 -44 3 -49 28 -15 72 -26 252 -26 418 l0
184 29 0 c25 0 31 -7 55 -59z m-184 45 c0 -2 -9 -25 -20 -50 -23 -55 -50 -180
-50 -236 0 -65 29 -188 60 -258 25 -53 26 -62 12 -58 -9 3 -36 10 -60 17 -50
14 -89 58 -127 142 -71 154 -16 365 109 423 48 22 76 30 76 20z m244 -12 c27
-27 85 -156 102 -229 12 -52 15 -98 11 -180 -7 -141 -18 -172 -63 -181 -19 -3
-37 -4 -40 -1 -3 2 3 42 12 88 30 151 4 363 -62 492 -13 25 -13 27 5 27 11 0
27 -7 35 -16z m132 -76 c83 -87 114 -251 78 -408 -14 -65 -17 -70 -50 -80 -20
-7 -37 -10 -39 -8 -3 2 0 19 5 37 18 63 22 166 10 246 -12 81 -51 204 -76 240
-8 11 -14 23 -14 27 0 15 54 -19 86 -54z m-852 -12 c79 -39 88 -54 28 -48 -66
6 -145 -12 -223 -51 -86 -44 -142 -90 -191 -157 l-40 -55 7 44 c10 60 39 141
71 201 26 47 64 73 139 93 48 13 155 0 209 -27z m296 30 c0 -2 -12 -30 -27
-62 -54 -119 -41 -275 32 -383 34 -52 34 -52 12 -60 -70 -26 -74 -25 -107 31
-119 207 -76 452 83 477 4 0 7 -1 7 -3z m768 -76 c60 -31 61 -32 73 -88 23
-113 -8 -231 -86 -320 -43 -50 -53 -50 -28 -1 14 27 18 58 17 154 0 130 -17
211 -55 258 -20 26 -20 27 -1 27 10 0 46 -14 80 -30z m-110 -3 c42 -44 55 -95
60 -227 3 -99 1 -133 -12 -163 -12 -31 -20 -38 -38 -35 -14 2 -22 9 -20 18 29
124 34 178 22 254 -6 44 -20 101 -31 128 -20 52 -14 61 19 25z m-823 -31 c-40
-95 -26 -217 38 -348 34 -70 33 -78 -13 -78 -23 0 -63 47 -97 113 -26 52 -41
145 -30 189 7 27 106 172 113 165 2 -2 -3 -20 -11 -41z m-89 4 c12 0 11 -6 -5
-29 -12 -16 -29 -47 -39 -68 -10 -21 -28 -54 -42 -74 l-24 -36 -90 1 c-78 1
-99 -3 -146 -25 -31 -14 -73 -41 -94 -60 -37 -32 -38 -32 -31 -9 28 92 130
200 238 254 68 33 173 59 205 50 8 -2 20 -4 28 -4z m1188 -266 c-2 -64 -7 -92
-26 -130 -27 -55 -53 -64 -126 -44 l-40 10 30 32 c69 74 115 206 104 298 l-5
45 32 -65 c29 -58 32 -73 31 -146z m-1224 31 c0 -27 45 -122 77 -163 l26 -34
-27 -27 c-27 -26 -27 -26 -43 -6 -30 38 -55 108 -60 165 -7 68 3 122 18 99 5
-7 9 -23 9 -34z m-181 -5 c-82 -8 -160 -40 -214 -88 -25 -22 -24 -20 5 11 56
61 120 87 209 86 l76 -2 -76 -7z m71 -25 c0 -25 -34 -62 -67 -74 -129 -47
-224 -181 -255 -363 l-13 -73 -6 50 c-11 78 -10 236 1 277 20 70 124 155 217
177 43 10 123 14 123 6z m107 -187 l32 -57 -27 -55 c-15 -30 -30 -55 -33 -55
-3 -1 -14 25 -24 57 -20 63 -32 224 -20 269 7 26 9 22 24 -37 9 -36 31 -91 48
-122z m1273 116 c0 -34 -8 -74 -21 -105 -20 -46 -23 -48 -39 -34 -16 14 -15
18 8 65 13 27 27 70 29 95 7 61 23 47 23 -21z m47 -123 c-3 -58 -10 -119 -15
-136 l-9 -30 -27 53 -26 52 25 49 c13 27 27 68 31 90 4 24 11 38 17 34 6 -4 8
-45 4 -112z m-1467 97 c0 -2 -9 -32 -20 -67 -15 -46 -33 -78 -64 -111 -79 -84
-111 -165 -126 -323 -12 -127 -23 -147 -38 -71 -45 221 30 452 177 545 38 24
71 37 71 27z m84 -241 c20 -53 21 -67 11 -96 -6 -19 -14 -31 -17 -25 -18 29
-39 143 -43 234 l-4 105 14 -78 c9 -43 26 -106 39 -140z m476 152 c122 -39
308 -35 447 8 52 16 54 16 130 -10 43 -15 102 -30 132 -34 50 -6 55 -9 82 -52
61 -95 135 -334 146 -466 11 -146 -73 -469 -180 -685 -94 -191 -233 -373 -335
-439 -64 -41 -154 -71 -211 -71 -234 0 -486 230 -610 555 -48 129 -94 330
-115 511 -11 88 66 397 134 539 47 99 73 119 177 134 48 7 97 17 108 21 27 12
22 12 95 -11z m970 -102 c0 -63 -27 -197 -40 -197 -4 0 -13 20 -20 44 -10 37
-9 57 4 118 8 40 19 91 22 113 l7 40 13 -30 c7 -16 13 -56 14 -88z m-1486
-151 l24 -77 -21 -89 c-12 -50 -25 -90 -28 -90 -16 0 -34 145 -34 265 1 148
13 202 26 119 5 -29 19 -86 33 -128z m-99 5 l0 -159 -28 24 c-31 26 -66 31
-86 12 -20 -19 -8 63 19 133 16 43 82 149 93 149 1 0 2 -71 2 -159z m1604
-149 c-6 -46 -13 -81 -16 -79 -2 3 -10 31 -18 63 -12 54 -12 62 13 140 l27 84
3 -63 c2 -34 -2 -99 -9 -145z m-1620 -46 l43 -44 13 -118 c8 -66 22 -170 32
-233 l17 -114 -23 -18 c-13 -10 -27 -17 -31 -14 -14 9 -73 116 -105 190 -26
62 -29 82 -29 167 0 55 4 102 10 108 16 16 47 -15 85 -84 29 -53 30 -57 10
-45 -20 12 -24 12 -37 -5 -8 -11 -14 -27 -14 -35 1 -23 44 -104 58 -109 6 -2
0 19 -14 47 -22 41 -24 53 -14 66 9 11 17 12 31 4 28 -14 25 9 -11 89 -75 165
-125 147 -118 -42 4 -94 3 -97 -10 -65 -32 76 7 299 51 299 7 0 32 -20 56 -44z
m1724 17 c36 -72 50 -214 26 -271 -13 -31 -14 -25 -14 82 0 80 -4 119 -13 128
-16 16 -39 3 -69 -42 -27 -39 -28 -31 -8 46 23 88 52 109 78 57z m1 -201 c0
-85 -3 -105 -29 -167 -32 -73 -91 -181 -104 -189 -4 -3 -15 0 -24 7 -15 11
-15 17 -2 59 7 26 21 89 31 140 18 102 25 116 44 93 11 -13 8 -24 -14 -66 -14
-28 -20 -49 -14 -47 7 3 23 26 36 52 27 54 23 95 -9 103 -23 6 -19 28 17 84
49 78 68 58 68 -69z m-1741 -332 c21 -37 40 -56 55 -58 12 -2 22 -10 22 -18 0
-34 -47 -152 -135 -334 -51 -107 -103 -228 -115 -269 -41 -135 -41 -299 0
-420 10 -31 22 -65 25 -76 11 -33 -81 73 -111 128 -20 38 -28 69 -32 124 -6
95 12 158 98 343 125 268 156 386 148 561 -3 63 -2 98 4 89 5 -8 23 -40 41
-70z m150 -135 c0 -83 -35 -179 -152 -419 -122 -247 -146 -320 -144 -436 0
-47 8 -107 16 -135 25 -77 12 -64 -18 18 -47 130 -48 291 -4 431 13 38 60 145
106 239 79 160 143 319 143 355 0 8 8 24 17 34 17 19 17 19 26 -4 5 -13 10
-50 10 -83z m62 -146 c27 -66 36 -99 32 -124 -9 -57 -54 -136 -143 -255 -120
-159 -149 -222 -149 -325 0 -103 25 -159 124 -275 l72 -85 -41 -19 -40 -20
-51 49 c-64 64 -123 179 -139 274 -21 124 10 241 120 448 72 135 147 310 162
375 6 26 12 48 13 48 1 0 19 -41 40 -91z m108 -205 l38 -56 -28 -35 c-149
-186 -213 -306 -228 -424 -9 -76 14 -162 65 -244 40 -62 44 -85 15 -85 -21 0
-155 167 -183 229 -21 46 -24 64 -20 130 6 98 35 155 161 322 51 69 102 147
113 172 10 26 21 47 24 47 3 -1 22 -26 43 -56z m36 -211 c-127 -135 -180 -241
-180 -365 -1 -55 6 -82 35 -149 19 -46 34 -85 32 -87 -7 -6 -80 130 -98 183
-22 62 -22 104 -3 180 20 77 70 167 148 267 34 44 66 86 72 94 7 10 15 6 36
-19 l27 -32 -69 -72z m183 -92 c-4 -56 -6 -62 -58 -115 -30 -30 -85 -80 -123
-110 -80 -64 -87 -81 -76 -191 4 -45 3 -75 -3 -79 -6 -3 -25 29 -43 71 -28 66
-33 91 -33 159 -1 73 2 87 36 155 22 45 69 111 118 167 l81 92 52 -45 52 -44
-3 -60z m133 -12 c97 -46 211 -52 313 -16 l72 25 5 -21 c3 -12 12 -62 21 -112
29 -164 87 -311 140 -360 l24 -23 -22 -14 c-216 -142 -555 -152 -774 -23 l-46
27 40 42 c44 45 83 117 102 185 16 60 40 209 40 253 0 33 8 68 15 68 1 0 33
-14 70 -31z m-159 -200 c-32 -167 -106 -283 -166 -264 -18 6 -20 16 -20 90 l0
83 63 50 c34 28 77 66 96 86 19 20 36 34 38 32 2 -1 -3 -36 -11 -77z m-185
-329 c-26 -22 -21 -27 9 -8 15 10 22 10 32 0 10 -10 8 -16 -8 -32 l-20 -20
-29 30 c-25 26 -27 32 -15 40 8 5 24 10 35 10 19 -1 19 -2 -4 -20z m1014 11
c10 -17 -12 -21 -25 -6 -10 12 -10 15 3 15 9 0 18 -4 22 -9z m-29 -40 c-10
-16 -23 -14 -30 5 -9 25 4 38 21 21 9 -8 12 -20 9 -26z m-35 -7 c10 -13 10
-17 -2 -24 -17 -11 -45 13 -35 29 10 15 21 14 37 -5z m-867 -3 c3 -4 -3 -16
-14 -26 -26 -23 -52 -6 -30 20 14 17 36 20 44 6z m823 -48 c-16 -16 -18 -16
-34 0 -17 17 -17 19 2 33 17 12 21 12 34 -1 14 -13 13 -17 -2 -32z m-793 28
c10 -15 -20 -45 -39 -37 -17 6 -17 7 0 26 20 22 31 25 39 11z m44 -20 c12 -7
12 -12 1 -30 -15 -23 -18 -24 -38 -12 -8 5 -11 16 -6 30 7 22 21 26 43 12z
m701 -9 c7 -13 6 -23 -1 -30 -18 -18 -36 -14 -48 7 -8 16 -6 22 7 30 25 15 31
14 42 -7z m-655 -10 c9 -15 -19 -51 -33 -43 -10 7 -11 13 -2 30 12 21 26 27
35 13z m603 -37 c-6 -17 -134 -55 -212 -62 l-75 -6 0 26 c0 28 5 30 110 42 30
4 78 15 105 24 45 15 51 16 63 2 7 -8 11 -20 9 -26z m-567 17 c0 -5 -6 -16
-13 -27 -16 -20 -31 -7 -21 19 6 16 34 23 34 8z m40 -8 c0 -18 -22 -42 -35
-38 -11 5 -12 11 -4 25 9 17 39 27 39 13z m78 -10 c18 -5 21 -11 16 -28 -9
-28 -6 -27 -53 -20 -29 5 -41 11 -41 24 0 30 25 38 78 24z m52 -23 c0 -20 -17
-37 -27 -28 -7 8 7 47 18 47 5 0 9 -9 9 -19z m100 -17 c0 -17 -6 -24 -20 -24
-12 0 -20 7 -21 18 -1 16 -2 16 -6 0 -3 -11 -14 -18 -30 -18 -19 0 -24 4 -19
16 3 9 6 21 6 27 0 8 15 11 45 9 40 -4 45 -7 45 -28z m-1098 -191 c27 -31 52
-87 37 -81 -8 3 -40 13 -72 22 l-58 17 21 29 c24 34 50 38 72 13z m2272 -29
c5 -12 2 -15 -10 -10 -8 3 -20 6 -25 6 -6 0 -7 5 -4 10 10 15 32 12 39 -6z
m-2277 -50 c49 -15 63 -24 68 -43 3 -13 4 -26 1 -29 -6 -5 -126 25 -163 41
-19 8 -20 13 -10 34 6 15 17 23 26 20 9 -3 44 -13 78 -23z m-43 -59 c41 -14
86 -25 99 -25 23 0 36 -20 37 -56 0 -17 -104 6 -227 51 -10 3 -10 10 -1 30 6
14 13 25 14 25 2 0 37 -11 78 -25z"/>
<path d="M1421 2539 c-68 -45 -95 -79 -63 -79 10 0 46 9 79 21 l62 20 155 -42
c85 -23 161 -39 169 -36 18 7 32 56 19 69 -11 11 -170 54 -252 68 -36 6 -75
13 -86 15 -14 3 -43 -9 -83 -36z m98 -3 l23 -24 -39 9 c-21 5 -42 9 -48 9 -10
1 24 30 35 30 4 0 17 -11 29 -24z m70 -15 l20 -28 -22 4 c-12 3 -30 16 -40 29
-17 23 -17 24 2 24 11 0 29 -13 40 -29z m45 3 c17 -17 22 -44 7 -44 -8 0 -41
43 -41 55 0 10 19 5 34 -11z m-179 0 c22 -9 0 -24 -34 -24 -24 0 -24 0 -5 15
23 17 19 16 39 9z m235 -30 c0 -34 -27 -30 -32 5 -3 23 -1 27 14 23 11 -2 18
-14 18 -28z m50 7 c0 -21 -13 -41 -26 -41 -14 0 -19 31 -7 43 10 10 33 8 33
-2z m36 -17 c-3 -9 -6 -20 -6 -25 0 -5 -7 -9 -16 -9 -11 0 -14 5 -10 16 3 9 6
20 6 25 0 5 7 9 16 9 11 0 14 -5 10 -16z m27 -14 c-6 -22 -23 -38 -23 -21 0
17 12 41 20 41 5 0 6 -9 3 -20z m27 2 c0 -5 -7 -17 -16 -28 -8 -10 -14 -14
-11 -9 2 6 7 18 10 28 7 17 17 23 17 9z"/>
<path d="M2395 2556 c-146 -31 -226 -53 -238 -65 -14 -14 11 -71 30 -71 8 0
82 18 165 41 l149 40 61 -20 c80 -27 102 -28 88 -2 -9 18 -125 102 -139 100
-3 0 -55 -11 -116 -23z m141 -11 c10 -8 15 -15 9 -15 -5 0 -27 -4 -48 -9 l-39
-9 23 24 c26 28 29 29 55 9z m-83 -19 c-10 -13 -28 -26 -40 -29 l-22 -4 20 28
c11 16 29 29 40 29 19 0 19 -1 2 -24z m-53 6 c0 -9 -38 -52 -45 -52 -11 0 -4
30 11 44 17 17 34 21 34 8z m-58 -32 c-5 -36 -32 -41 -32 -6 0 15 7 26 18 29
9 3 17 5 18 6 0 0 -1 -12 -4 -29z m242 15 c19 -15 19 -15 -1 -15 -12 0 -29 3
-38 6 -13 5 -14 8 -3 15 17 11 20 11 42 -6z m-286 -33 c4 -26 -22 -31 -32 -6
-10 26 -7 36 12 32 9 -2 18 -13 20 -26z m-46 -7 c4 -17 1 -25 -8 -25 -8 0 -14
4 -14 9 0 5 -3 16 -6 25 -4 10 -1 16 9 16 8 0 17 -11 19 -25z m-38 -1 c9 -23
7 -36 -3 -30 -12 8 -21 46 -11 46 4 0 11 -7 14 -16z m-21 -26 c6 -22 5 -22 -8
-4 -17 22 -20 40 -6 32 5 -3 11 -16 14 -28z"/>
<path d="M1440 2391 c0 -5 7 -14 15 -21 8 -7 13 -16 10 -20 -6 -10 -71 4 -91
20 -8 7 -18 10 -22 6 -4 -4 4 -16 18 -26 23 -17 23 -19 7 -26 -10 -4 -29 -2
-42 4 -31 14 -43 -3 -14 -19 12 -6 36 -9 54 -6 29 5 35 2 45 -24 17 -41 72
-86 122 -101 52 -15 213 -17 213 -3 0 6 -18 9 -40 7 -22 -1 -53 2 -70 7 -16 5
-23 10 -14 10 29 2 53 39 51 79 -2 27 0 33 8 22 16 -24 12 -55 -12 -85 -14
-18 -17 -26 -7 -23 21 7 40 49 36 81 -2 15 0 27 5 27 12 0 46 -59 64 -112 8
-27 20 -48 25 -48 12 0 12 107 -1 115 -5 3 -10 -2 -10 -12 0 -11 -9 -3 -23 22
-29 52 -71 72 -181 84 -66 8 -95 16 -111 31 -23 21 -35 25 -35 11z m110 -80
c-14 -27 -13 -84 2 -99 9 -9 9 -12 -3 -12 -25 0 -85 47 -107 84 l-21 35 32 4
c18 2 49 5 70 5 34 2 37 0 27 -17z m80 -14 c0 -19 -37 -50 -49 -42 -15 9 -14
21 5 39 19 20 44 21 44 3z"/>
<path d="M2530 2392 c0 -25 -52 -45 -136 -53 -52 -4 -96 -14 -117 -26 -34 -20
-87 -111 -87 -150 0 -34 17 -27 25 10 9 43 51 114 75 127 19 10 20 7 20 -33 0
-25 6 -49 13 -54 22 -16 77 -15 103 2 22 14 25 23 22 60 -2 36 -1 41 11 32 9
-8 11 -25 8 -57 -5 -37 -4 -40 4 -20 6 14 8 40 5 58 -5 32 -5 32 39 32 24 0
46 -4 49 -8 7 -12 -30 -69 -57 -87 -37 -24 -133 -43 -224 -44 -29 -1 -53 -5
-53 -11 0 -16 172 -12 221 5 57 20 107 60 126 99 12 26 20 32 39 28 30 -5 74
5 74 18 0 6 -20 7 -47 4 -47 -5 -47 -4 -25 12 12 9 22 23 22 32 0 13 -3 13
-19 -2 -11 -10 -39 -20 -63 -23 l-43 -6 19 22 c15 16 17 24 8 33 -9 9 -12 9
-12 0z m-130 -94 c0 -14 -30 -48 -42 -48 -12 0 -10 34 4 48 15 15 38 16 38 0z"/>
<path d="M2002 2308 c3 -18 19 -118 37 -221 30 -175 31 -190 17 -213 -18 -27
-58 -32 -101 -12 -18 8 -29 8 -36 1 -7 -7 2 -15 31 -27 48 -19 61 -20 94 -5
44 20 49 54 31 180 -24 172 -57 329 -67 329 -6 0 -8 -15 -6 -32z"/>
<path d="M2023 1655 c-19 -8 -35 -10 -38 -4 -14 22 -83 9 -136 -27 -30 -20
-70 -42 -89 -50 -22 -8 -28 -13 -16 -13 11 -1 55 -24 98 -53 73 -47 84 -51
152 -56 64 -4 81 -1 129 21 30 14 67 40 83 61 16 20 34 36 41 36 6 0 14 4 17
9 4 5 -2 7 -12 4 -11 -3 -37 9 -64 30 -81 62 -105 68 -165 42z m99 -11 c17 -9
50 -30 72 -46 l41 -31 -65 7 c-36 4 -71 7 -77 8 -7 1 -13 8 -13 17 0 14 -2 14
-10 1 -5 -8 -10 -18 -10 -21 0 -11 62 -21 109 -19 45 2 45 2 29 -22 -8 -12
-39 -35 -68 -50 -95 -50 -222 -31 -303 46 -15 14 -36 26 -45 27 -14 0 -14 2
-2 6 8 4 40 24 71 45 57 39 104 49 126 27 9 -9 20 -8 45 4 42 21 61 21 100 1z"/>
<path d="M1911 1604 c-1 -16 -11 -23 -48 -32 -41 -9 -42 -10 -10 -7 22 2 35 0
32 -6 -4 -5 -2 -9 4 -9 5 0 12 4 15 9 8 12 55 1 52 -13 -2 -6 -1 -8 1 -3 12
20 21 3 17 -30 -4 -40 0 -36 10 9 5 20 15 30 39 38 l32 10 -36 -5 c-48 -7 -97
11 -102 38 -4 21 -4 21 -6 1z"/>
<path d="M2130 1531 c0 -5 5 -13 10 -16 6 -3 10 -2 10 4 0 5 -4 13 -10 16 -5
3 -10 2 -10 -4z"/>
</g>
</svg>
