<?xml version="1.0" standalone="no"?>
<!DOCTYPE svg PUBLIC "-//W3C//DTD SVG 20010904//EN"
 "http://www.w3.org/TR/2001/REC-SVG-20010904/DTD/svg10.dtd">
<svg version="1.0" xmlns="http://www.w3.org/2000/svg"
 width="564.000000pt" height="378.000000pt" viewBox="0 0 564.000000 378.000000"
 preserveAspectRatio="xMidYMid meet">

<g transform="translate(0.000000,378.000000) scale(0.100000,-0.100000)"
fill="#7b0180" stroke="none">
<path d="M1253 3395 c-69 -35 -166 -139 -203 -217 -34 -73 -70 -205 -70 -257
1 -20 7 -63 15 -96 26 -107 23 -119 -40 -154 -93 -52 -108 -116 -52 -223 32
-59 33 -66 22 -108 -11 -42 -12 -44 -23 -23 -7 12 -9 35 -5 54 4 21 2 30 -5
28 -6 -2 -49 -41 -96 -87 -101 -98 -106 -111 -106 -270 0 -121 -17 -211 -67
-349 -30 -85 -28 -149 6 -172 21 -13 21 -13 -5 -34 -54 -42 -80 -140 -48 -186
l16 -23 30 29 30 28 -7 -37 c-15 -78 17 -133 112 -194 29 -19 56 -34 59 -34 3
0 22 -11 42 -25 20 -14 40 -25 44 -25 4 0 9 151 10 336 l3 336 24 19 c22 18
47 19 588 19 598 0 592 0 635 -47 15 -17 17 -54 18 -368 1 -193 1 -367 1 -388
l-1 -38 -515 3 -515 3 -23 27 c-33 40 -70 41 -115 3 -18 -15 -42 -25 -61 -25
-31 0 -31 1 -31 50 0 42 -3 50 -18 50 -46 0 -122 -125 -159 -260 -27 -97 -24
-274 6 -360 37 -107 89 -187 132 -204 21 -8 40 -20 44 -26 4 -7 -136 -10 -449
-10 -297 0 -456 -3 -456 -10 0 -7 165 -10 475 -10 440 0 500 3 465 25 -14 9
-12 25 3 25 7 0 29 11 49 25 l37 25 -25 -55 c-19 -40 -24 -67 -22 -106 2 -29
8 -54 15 -56 8 -3 10 8 6 36 -8 55 11 116 53 174 43 60 77 64 94 13 13 -40 7
-69 -31 -155 -16 -35 -27 -66 -25 -69 10 -10 25 11 46 65 13 32 26 62 30 66 7
8 -1 -50 -16 -108 -5 -21 -4 -27 7 -23 22 7 38 131 32 239 -5 88 -4 101 19
150 45 96 146 189 206 189 36 0 54 -34 57 -110 2 -39 6 -92 9 -118 8 -60 -4
-99 -52 -170 -50 -73 -68 -108 -75 -150 -5 -24 -3 -32 5 -30 7 3 16 21 20 40
4 20 30 71 57 112 63 96 76 135 66 195 -5 25 -9 75 -10 111 -2 94 -10 115 -45
130 -48 20 -101 -1 -164 -63 -29 -29 -62 -65 -74 -82 l-21 -30 10 39 c8 28 8
56 0 95 -5 31 -13 93 -17 138 -5 64 -12 90 -30 115 -13 17 -24 40 -24 50 0 17
22 18 408 19 224 1 436 1 472 2 124 1 150 -2 150 -18 0 -8 -9 -19 -21 -25 -20
-11 -19 -13 19 -48 24 -22 42 -51 47 -71 9 -40 -2 -138 -17 -147 -6 -4 -7 13
-3 50 12 91 -31 178 -71 145 -8 -6 -14 -24 -14 -40 0 -16 -3 -29 -6 -29 -3 0
-26 18 -52 39 -49 41 -148 91 -217 109 -70 19 -138 22 -220 11 -44 -6 -84 -10
-90 -10 -143 14 -137 15 -190 -21 -92 -62 -137 -158 -97 -207 l19 -24 106 101
c124 120 145 131 192 102 106 -65 165 -208 140 -337 l-7 -38 -19 55 c-10 30
-19 56 -19 58 0 2 -4 1 -9 -2 -4 -3 -12 -33 -15 -68 -8 -68 -31 -120 -76 -172
-35 -40 -37 -46 -10 -46 31 0 74 25 103 60 l26 30 13 -27 c17 -36 55 -40 152
-19 103 23 189 67 246 126 28 28 50 46 50 39 0 -27 -51 -97 -89 -122 -23 -15
-41 -32 -41 -37 0 -7 629 -10 1815 -10 1203 0 1815 3 1815 10 0 7 -604 10
-1792 10 l-1792 0 37 34 c42 38 67 90 67 139 0 18 6 42 14 53 14 18 15 18 21
2 12 -30 23 -20 39 36 30 101 14 194 -38 232 -14 11 -17 18 -8 21 6 3 12 16
12 29 0 21 4 24 40 24 l40 0 0 113 c1 494 -2 722 -10 738 -12 22 -67 38 -140
41 -51 1 -50 2 20 7 l75 6 13 50 c7 28 15 91 18 140 15 227 -85 419 -259 503
-63 30 -67 33 -67 66 0 25 -14 55 -52 111 -60 89 -63 117 -28 256 29 112 24
175 -25 273 -39 80 -137 196 -186 221 -33 18 -82 19 -110 4 -16 -8 -30 -7 -60
5 -62 25 -155 21 -216 -9z m215 -13 c43 -17 51 -17 68 -5 27 21 88 10 126 -22
87 -73 173 -220 183 -310 l5 -50 -13 46 c-35 123 -147 191 -230 140 -19 -12
-38 -29 -41 -38 -10 -24 18 -58 67 -82 32 -16 49 -32 62 -61 21 -46 27 -49 40
-17 6 12 17 22 25 22 12 0 15 -12 14 -51 -2 -65 -36 -144 -62 -144 -17 0 -21
-12 -32 -79 -8 -51 -16 -78 -24 -75 -6 2 -20 -13 -31 -33 -37 -69 -172 -144
-232 -128 -29 7 -96 75 -129 131 -31 52 -43 181 -25 264 24 114 95 216 172
250 50 21 53 21 90 5 44 -20 59 -14 59 24 0 89 -166 110 -269 33 -48 -36 -77
-109 -91 -225 -18 -151 -44 -207 -112 -243 -44 -23 -58 -18 -58 19 0 17 -7 54
-15 81 -20 67 -19 116 6 205 32 112 66 178 132 247 101 108 202 139 315 96z
m57 -174 c7 -7 16 -24 20 -37 7 -22 5 -23 -16 -17 -13 4 -43 10 -66 13 -84 11
-169 -68 -228 -213 -29 -69 -29 -66 -11 48 22 133 52 182 131 213 47 17 151
14 170 -7z m182 -39 c61 -23 112 -100 113 -169 0 -19 -14 -83 -31 -144 -44
-156 -34 -232 41 -315 17 -18 30 -34 30 -36 0 -7 -75 8 -100 20 -49 25 -64 52
-64 113 -1 90 12 149 33 155 49 13 90 204 49 231 -14 8 -23 8 -39 -2 -11 -7
-22 -12 -23 -10 -2 2 -8 11 -13 22 -6 10 -32 30 -59 45 -38 20 -49 31 -49 51
0 41 56 61 112 39z m-515 -483 c-49 -54 -35 -178 30 -251 l41 -46 -6 -77 c-8
-96 -37 -184 -87 -261 -45 -70 -101 -106 -179 -116 l-54 -7 20 28 c28 41 33
58 45 149 17 130 15 164 -15 228 l-27 59 30 106 c16 59 32 126 36 149 6 39 10
44 51 59 50 19 108 81 120 128 6 25 9 15 11 -48 2 -66 0 -82 -16 -100z m614
91 c-1 -55 3 -69 29 -106 54 -78 75 -116 75 -138 0 -31 -11 -29 -53 12 -46 45
-63 77 -72 136 -6 38 9 159 19 159 2 0 2 -28 2 -63z m-551 -292 l7 -60 -26 24
c-14 13 -31 40 -37 59 -15 47 -14 139 3 159 11 14 15 7 29 -53 9 -38 19 -96
24 -129z m-257 133 c-15 -87 -49 -189 -60 -182 -16 10 -48 86 -47 114 0 36 22
72 61 97 51 34 57 30 46 -29z m632 -228 c-6 -52 -18 -122 -27 -155 -9 -35 -15
-100 -15 -158 0 -112 1 -111 -101 -123 -51 -6 -137 9 -137 24 0 5 11 46 25 93
42 145 31 216 -49 299 -39 40 -44 52 -50 105 -3 33 -9 71 -12 85 -6 21 2 16
45 -27 60 -61 87 -71 150 -54 52 14 145 71 163 101 12 18 13 14 16 -37 2 -32
-2 -101 -8 -153z m50 186 c0 -17 50 -63 82 -75 15 -6 62 -15 103 -20 178 -22
311 -146 356 -331 16 -69 17 -227 0 -302 l-12 -56 -71 -4 c-52 -2 -72 1 -76
10 -2 8 7 53 22 100 52 170 57 269 17 322 -16 20 -21 22 -35 11 -20 -17 -20
-46 -1 -101 24 -68 20 -107 -16 -148 -29 -33 -31 -39 -27 -98 3 -48 0 -65 -10
-69 -7 -3 -66 -5 -131 -5 -115 0 -118 1 -143 28 -33 34 -78 118 -78 145 0 11
8 29 17 39 20 23 7 53 -23 53 -15 0 -20 -8 -22 -37 -4 -52 -22 -48 -23 5 -2
81 2 123 23 217 11 52 22 150 25 217 3 68 10 120 14 117 5 -3 9 -11 9 -18z
m-314 -293 c21 -48 17 -113 -11 -200 -14 -43 -25 -85 -25 -94 0 -10 -11 -20
-26 -23 -41 -11 -65 -88 -48 -153 15 -54 51 -12 74 84 11 51 13 53 38 45 38
-10 172 -6 204 6 26 11 28 10 34 -24 3 -19 4 -57 2 -85 l-5 -49 77 0 c46 0 91
-6 111 -15 31 -13 -8 -14 -384 -15 -438 0 -461 -2 -497 -45 -13 -15 -16 -72
-18 -341 l-3 -323 -77 45 c-42 25 -88 55 -100 67 -51 47 -64 104 -37 156 24
47 73 58 180 39 16 -2 20 3 20 27 0 35 -31 55 -88 55 -50 0 -81 -18 -141 -79
-27 -27 -53 -48 -58 -45 -15 9 -8 64 12 105 38 73 99 93 196 64 64 -19 74 -19
74 4 0 42 -25 51 -135 51 -85 0 -104 3 -109 16 -11 29 -6 73 14 125 46 116 70
237 70 353 0 61 4 127 10 146 6 21 36 61 76 101 l67 67 23 -46 c13 -26 24 -65
24 -87 0 -43 14 -113 24 -123 4 -3 12 0 18 6 23 23 31 12 24 -30 -10 -61 -35
-107 -67 -124 -45 -23 -35 -34 29 -34 128 0 211 51 274 166 30 56 68 183 68
230 0 18 3 40 6 49 6 14 11 12 37 -12 16 -15 36 -42 43 -60z m-380 1 c23 -78
15 -97 -18 -46 -28 41 -33 66 -22 96 10 25 23 9 40 -50z m-28 -69 c15 -32 15
-72 1 -80 -15 -10 -17 -6 -25 53 -7 56 5 70 24 27z m1136 -22 c12 -43 17 -93
9 -93 -8 0 -33 76 -33 100 0 17 18 11 24 -7z m-429 -142 c3 -5 1 -12 -5 -16
-5 -3 -10 1 -10 9 0 18 6 21 15 7z m41 -208 l25 -33 -49 0 -50 0 -4 78 c-3 42
-3 81 0 85 2 5 15 -15 29 -45 13 -29 36 -68 49 -85z m361 75 l-22 -63 -3 38
c-2 23 3 48 13 63 28 43 34 25 12 -38z m-762 -32 c-9 -31 -18 -56 -21 -56 -12
0 -2 90 12 105 25 24 27 13 9 -49z m745 -106 c10 -18 7 -19 -77 -14 -119 8
-134 17 -38 24 44 4 85 7 92 8 7 1 17 -7 23 -18z m191 -60 c18 -10 19 -26 19
-421 l0 -410 -27 3 -28 3 -2 365 c0 201 -2 375 -2 387 -1 12 -13 35 -27 52
l-26 31 37 0 c20 0 45 -5 56 -10z m-1406 -210 c7 -12 -22 -12 -50 0 -17 7 -15
9 12 9 17 1 35 -3 38 -9z m-1 -100 c45 -17 28 -25 -54 -25 -44 0 -80 1 -80 2
0 1 12 9 28 17 32 18 70 20 106 6z m68 -487 c3 -47 3 -48 38 -49 47 0 49 -22
5 -67 -33 -33 -35 -40 -35 -99 0 -50 6 -76 30 -123 16 -33 30 -66 30 -74 0 -7
-29 -41 -65 -76 -61 -58 -65 -65 -65 -106 0 -25 9 -62 20 -84 25 -49 19 -56
-13 -13 -96 129 -130 313 -87 483 12 50 32 113 45 140 22 51 70 115 85 115 5
0 10 -21 12 -47z m213 -13 c4 -6 -14 -10 -45 -10 -34 0 -49 4 -45 11 18 28 72
28 90 -1z m13 -63 c2 -11 14 -34 26 -52 18 -26 26 -60 36 -152 22 -190 18
-212 -57 -315 -38 -53 -157 -138 -191 -138 -33 0 -82 81 -82 136 0 39 4 46 60
94 33 29 63 63 66 77 4 16 -4 46 -25 92 -22 48 -31 82 -31 120 0 46 4 56 35
88 19 20 35 45 35 55 0 17 7 19 62 16 52 -2 63 -6 66 -21z m663 -18 c105 -14
194 -58 279 -138 59 -55 60 -57 66 -121 6 -64 5 -66 -31 -112 -70 -89 -191
-150 -327 -165 -56 -6 -58 -5 -69 23 -9 23 -8 42 5 91 18 69 21 149 6 188 -5
14 -12 36 -14 49 -7 37 -50 99 -96 139 -41 35 -42 36 -19 41 13 3 40 7 59 9
19 2 40 5 46 5 6 1 49 -3 95 -9z m-301 -7 c0 -5 -9 -13 -20 -18 -11 -5 -61
-49 -111 -98 -71 -71 -92 -87 -100 -75 -15 23 -10 43 21 92 39 62 109 107 167
107 24 0 43 -4 43 -8z m691 -132 c5 -23 7 -52 3 -63 -6 -20 -7 -20 -25 4 -11
14 -19 41 -19 65 0 71 25 68 41 -6z m-12 -123 c0 -21 -1 -21 -9 -2 -12 28 -12
37 0 30 6 -3 10 -16 9 -28z m-501 -212 c-14 -27 -49 -65 -71 -77 -15 -8 -13
-2 7 29 15 21 34 63 43 93 l17 55 7 -40 c4 -23 2 -49 -3 -60z m-476 -44 c-3
-46 -7 -59 -14 -47 -5 9 -16 16 -23 16 -8 0 -15 4 -15 10 0 8 53 90 56 86 1 0
-1 -30 -4 -65z"/>
</g>
</svg>
