<?xml version="1.0" standalone="no"?>
<!DOCTYPE svg PUBLIC "-//W3C//DTD SVG 20010904//EN"
 "http://www.w3.org/TR/2001/REC-SVG-20010904/DTD/svg10.dtd">
<svg version="1.0" xmlns="http://www.w3.org/2000/svg"
 width="780.000000pt" height="155.000000pt" viewBox="0 0 850.000000 205.000000"
 preserveAspectRatio="xMidYMid meet">

<g transform="translate(0.000000,205.000000) scale(0.100000,-0.100000)"
fill="#000000" stroke="none">
<path d="M4547 1769 c-95 -22 -164 -86 -188 -173 -6 -23 -14 -86 -18 -141 l-6
-100 -77 -3 -78 -3 0 -99 0 -100 80 0 80 0 1 -450 c1 -247 2 -456 3 -462 1
-10 38 -14 143 -16 l143 -3 2 463 3 463 98 3 97 3 0 99 0 99 -97 3 -98 3 1 63
c1 34 7 74 14 87 17 31 71 49 126 41 24 -3 46 -1 49 4 3 5 2 59 -1 119 l-7
111 -116 -1 c-64 -1 -133 -5 -154 -10z"/>
<path d="M40 1635 l0 -135 230 0 230 0 0 -640 0 -640 160 0 160 0 0 640 0 640
230 0 230 0 0 135 0 135 -620 0 -620 0 0 -135z"/>
<path d="M3710 995 l0 -775 140 0 140 0 0 775 0 775 -140 0 -140 0 0 -775z"/>
<path d="M8150 1494 l0 -277 -42 48 c-74 84 -167 125 -283 125 -222 0 -394
-144 -460 -385 -25 -91 -31 -312 -11 -405 57 -273 281 -449 522 -411 96 15
163 51 229 123 l55 61 0 -76 0 -77 145 0 145 0 -2 773 -3 772 -147 3 -148 3 0
-277z m-140 -389 c98 -50 143 -148 144 -320 1 -122 -13 -177 -63 -257 -75
-118 -260 -133 -361 -29 -66 67 -85 132 -85 286 0 134 15 195 64 263 61 83
198 109 301 57z"/>
<path d="M1623 1375 c-148 -32 -283 -140 -350 -280 -83 -176 -84 -456 -1 -625
58 -119 187 -219 343 -266 43 -13 93 -18 175 -18 182 0 294 43 410 158 61 61
110 142 110 183 0 23 0 23 -142 22 l-143 0 -30 -42 c-59 -81 -185 -113 -307
-78 -94 27 -169 122 -184 230 l-7 51 417 0 416 0 0 103 c0 116 -22 223 -64
306 -40 78 -138 176 -210 210 -119 57 -297 76 -433 46z m278 -250 c77 -40 123
-105 131 -190 l3 -30 -262 -3 c-297 -3 -278 -8 -249 76 33 93 100 155 186 173
54 11 140 -1 191 -26z"/>
<path d="M2820 1380 c-209 -33 -327 -145 -355 -334 l-7 -46 140 0 140 0 5 28
c10 43 43 90 79 108 73 38 231 26 282 -21 31 -29 42 -84 24 -122 -21 -45 -86
-69 -249 -92 -218 -31 -307 -66 -378 -147 -59 -67 -76 -116 -76 -229 0 -89 3
-106 28 -157 33 -67 80 -111 157 -147 49 -23 67 -26 170 -26 110 0 119 2 180
32 36 18 90 53 120 78 30 25 58 45 62 45 5 0 8 -12 8 -27 0 -16 5 -45 11 -65
l10 -38 159 0 c174 0 181 2 133 52 -38 39 -41 82 -42 495 -1 318 -3 358 -20
402 -39 104 -105 155 -248 191 -90 23 -252 33 -333 20z m317 -708 c-11 -168
-59 -233 -196 -268 -86 -22 -142 -13 -189 31 -36 32 -37 36 -37 103 0 118 36
147 232 186 66 13 133 31 149 39 16 8 33 13 38 10 5 -3 6 -48 3 -101z"/>
<path d="M5297 1366 c-90 -27 -168 -77 -233 -150 -98 -108 -137 -234 -137
-436 1 -275 77 -421 275 -525 234 -123 529 -92 702 75 64 61 126 159 126 199
0 20 -4 21 -147 20 l-148 0 -30 -41 c-41 -57 -94 -82 -180 -86 -84 -5 -134 7
-196 47 -55 34 -99 114 -107 192 l-5 49 417 0 416 0 0 93 c0 50 -7 124 -15
162 -30 145 -124 285 -237 352 -122 74 -344 95 -501 49z m308 -240 c28 -12 65
-39 82 -59 33 -37 70 -138 58 -157 -4 -6 -100 -10 -261 -10 l-254 0 0 24 c0
35 20 86 51 133 61 89 212 122 324 69z"/>
<path d="M6499 1366 c-180 -53 -302 -185 -356 -386 -24 -90 -24 -310 0 -400
39 -145 97 -227 211 -298 187 -119 434 -134 626 -40 83 40 190 145 225 219 43
92 47 89 -122 88 l-148 0 -30 -41 c-41 -57 -94 -82 -180 -86 -84 -5 -134 7
-195 46 -56 36 -99 111 -107 187 l-6 55 417 0 416 0 0 84 c0 306 -149 521
-402 581 -97 23 -257 19 -349 -9z m306 -240 c80 -38 129 -106 137 -191 l3 -30
-257 -3 -258 -2 0 23 c0 80 78 191 150 214 65 20 169 15 225 -11z"/>
</g>
</svg>
