<?xml version="1.0" standalone="no"?>
<!DOCTYPE svg PUBLIC "-//W3C//DTD SVG 20010904//EN"
 "http://www.w3.org/TR/2001/REC-SVG-20010904/DTD/svg10.dtd">
<svg version="1.0" xmlns="http://www.w3.org/2000/svg"
 width="550.000000pt" height="454.000000pt" viewBox="0 0 550.000000 454.000000"
 preserveAspectRatio="xMidYMid meet">

<g transform="translate(0.000000,454.000000) scale(0.100000,-0.100000)"
fill="#7b0180" stroke="none">
<path d="M1105 4319 c-174 -25 -396 -120 -546 -233 -150 -113 -252 -238 -316
-386 -60 -139 -68 -186 -68 -390 0 -230 11 -288 103 -550 28 -80 107 -234 162
-315 97 -143 253 -289 402 -376 152 -89 283 -129 488 -148 143 -14 262 -43
402 -98 l117 -47 152 -325 c255 -547 316 -661 358 -661 30 0 272 127 345 181
65 48 68 52 63 84 -7 45 -63 135 -344 552 -133 199 -243 370 -243 381 0 39 33
211 57 291 13 47 50 141 83 210 75 163 97 237 112 378 20 188 -13 413 -86 591
l-24 60 29 28 c78 75 97 205 44 303 -30 54 -62 85 -124 116 -47 24 -147 24
-200 1 l-40 -18 -52 43 c-29 24 -68 59 -88 77 -36 34 -103 83 -131 96 -8 4
-33 18 -55 31 -112 68 -233 109 -370 125 -103 11 -145 11 -230 -1z m341 -38
c123 -31 250 -89 330 -148 17 -13 34 -23 37 -23 7 0 19 -10 125 -107 l72 -66
-24 -26 c-183 -194 11 -510 263 -427 27 9 52 16 55 16 2 0 16 -30 30 -67 71
-189 97 -380 78 -564 -6 -63 -17 -118 -24 -125 -7 -7 -128 -77 -268 -157 -140
-79 -434 -246 -653 -371 -219 -124 -404 -226 -410 -226 -30 0 -240 113 -312
167 -167 125 -330 330 -409 513 -21 47 -41 92 -45 101 -15 27 -70 228 -87 317
-22 117 -22 322 0 427 64 299 264 530 591 686 99 47 213 84 310 100 82 13 252
3 341 -20z m856 -356 c130 -86 139 -274 18 -377 -122 -105 -304 -59 -370 94
-58 136 30 295 177 317 63 9 129 -3 175 -34z m55 -1302 c-14 -32 -45 -103 -70
-158 -53 -114 -92 -243 -111 -363 -7 -45 -16 -85 -18 -88 -5 -5 -148 211 -222
334 -21 34 -40 62 -44 61 -19 -1 -276 -157 -273 -165 2 -5 50 -103 108 -218
57 -115 102 -210 100 -213 -3 -2 -29 6 -58 18 -169 67 -282 95 -434 109 -121
11 -223 28 -230 40 -2 3 123 78 278 165 155 88 442 251 637 362 243 139 356
198 358 188 2 -8 -8 -40 -21 -72z m-407 -335 c30 -50 147 -229 259 -397 113
-168 268 -401 346 -518 171 -256 204 -316 189 -340 -28 -44 -292 -198 -375
-218 -22 -6 -30 -1 -46 27 -51 84 -95 173 -279 564 -108 231 -243 513 -300
628 -57 115 -103 210 -102 211 17 14 236 135 243 134 6 0 35 -41 65 -91z"/>
<path d="M1768 2294 l-77 -45 84 -162 c46 -89 170 -342 275 -562 232 -484 299
-615 315 -621 21 -8 134 44 223 103 45 30 82 58 82 62 0 15 -113 196 -288 461
-265 401 -371 563 -451 693 -40 64 -76 117 -80 117 -3 -1 -41 -21 -83 -46z
m181 -137 c52 -84 203 -316 336 -517 288 -437 355 -543 355 -561 0 -30 -251
-172 -270 -153 -11 12 -174 340 -300 604 -56 118 -159 327 -227 465 -69 137
-121 251 -117 252 5 2 32 17 59 33 28 16 55 30 60 29 6 0 53 -68 104 -152z"/>
<path d="M4115 3729 c-348 -51 -724 -359 -924 -757 -61 -121 -45 -124 20 -4
80 151 171 273 294 398 209 211 400 314 637 345 406 52 903 -235 1071 -618 87
-197 101 -482 35 -731 -97 -371 -279 -647 -548 -832 -95 -65 -116 -93 -33 -45
179 105 363 306 467 513 202 400 232 840 78 1147 -143 286 -491 528 -832 580
-104 16 -173 17 -265 4z"/>
<path d="M3126 2823 c-15 -32 -32 -96 -67 -258 -14 -66 -10 -285 7 -386 16
-93 60 -214 115 -314 48 -87 118 -292 134 -393 2 -15 7 -46 11 -69 6 -40 3
-47 -122 -240 -428 -663 -464 -725 -445 -761 17 -31 173 -131 281 -178 140
-62 144 -62 178 -15 33 46 150 293 322 682 l121 276 72 31 c173 75 289 107
454 127 158 18 224 31 249 50 11 7 17 15 14 17 -3 2 -23 13 -45 24 -104 56
-1197 646 -1250 676 l-60 34 -13 74 c-9 51 -12 130 -9 245 5 154 8 179 35 265
47 148 53 186 18 113z m534 -1027 c212 -115 419 -226 460 -248 41 -22 89 -48
105 -58 17 -10 62 -34 100 -55 39 -20 74 -41 78 -45 12 -11 -62 -27 -218 -45
-149 -18 -309 -60 -429 -115 -38 -17 -71 -29 -73 -26 -2 2 43 103 100 225
l105 220 -141 76 c-112 61 -143 73 -152 63 -6 -7 -38 -58 -70 -113 -77 -134
-167 -275 -175 -275 -4 0 -14 42 -23 93 -24 132 -58 230 -143 409 -41 86 -74
164 -74 173 0 13 16 8 83 -28 45 -24 255 -137 467 -251z m74 -87 c61 -33 115
-64 119 -69 5 -4 -16 -56 -46 -116 -30 -60 -98 -206 -152 -324 -53 -118 -105
-233 -115 -255 -10 -22 -70 -159 -135 -305 -128 -290 -187 -410 -213 -433 -15
-14 -22 -14 -67 2 -104 37 -310 154 -344 195 -21 25 24 104 342 596 221 341
347 540 347 545 0 2 13 23 29 47 16 24 41 66 57 93 41 75 48 85 58 85 5 0 59
-27 120 -61z"/>
<path d="M3627 1708 c-8 -13 -56 -93 -107 -178 -80 -133 -333 -538 -434 -695
-74 -115 -167 -265 -200 -327 l-37 -66 69 -46 c73 -48 178 -100 224 -111 27
-7 29 -3 97 137 38 78 137 294 221 478 83 184 196 427 251 539 55 112 98 205
97 206 -14 9 -157 85 -162 85 -3 0 -12 -10 -19 -22z m94 -39 c36 -18 59 -35
56 -42 -3 -7 -55 -115 -115 -242 -60 -126 -173 -372 -252 -545 -148 -326 -243
-525 -258 -533 -18 -12 -272 123 -272 145 0 13 72 131 350 573 152 242 308
493 346 557 38 65 73 118 77 118 4 0 35 -14 68 -31z"/>
<path d="M4563 1440 c-34 -20 -47 -38 -15 -21 23 13 58 40 52 41 -3 0 -20 -9
-37 -20z"/>
</g>
</svg>
