<?xml version="1.0" standalone="no"?>
<!DOCTYPE svg PUBLIC "-//W3C//DTD SVG 20010904//EN"
 "http://www.w3.org/TR/2001/REC-SVG-20010904/DTD/svg10.dtd">
<svg version="1.0" xmlns="http://www.w3.org/2000/svg"
 width="664.000000pt" height="637.000000pt" viewBox="0 0 664.000000 637.000000"
 preserveAspectRatio="xMidYMid meet">

<g transform="translate(0.000000,637.000000) scale(0.100000,-0.100000)"
fill="#7b0180" stroke="none">
<path d="M2920 5295 c-979 -123 -1756 -904 -1875 -1885 -17 -135 -19 -365 -5
-500 57 -549 336 -1070 767 -1429 572 -479 1352 -627 2064 -394 555 181 1010
578 1270 1107 269 548 293 1186 67 1756 -292 736 -993 1269 -1778 1349 -135
14 -379 12 -510 -4z m532 -21 c233 -29 448 -91 651 -186 106 -51 107 -51 107
-86 0 -31 9 -45 75 -107 74 -71 75 -72 75 -123 0 -45 -3 -52 -22 -57 -13 -3
-54 4 -93 15 -38 11 -83 20 -98 20 -73 0 -137 -72 -137 -155 0 -39 -7 -60 -30
-95 -34 -51 -37 -77 -14 -123 34 -68 110 -121 162 -115 l27 3 0 90 c0 96 6
115 34 115 43 0 91 -79 91 -148 0 -63 -26 -87 -126 -113 -88 -23 -138 -53
-149 -89 -5 -16 -16 -20 -53 -20 -94 -1 -147 -96 -88 -159 31 -34 66 -100 66
-126 0 -35 -20 -45 -89 -45 -37 0 -77 -6 -91 -13 -21 -11 -25 -20 -24 -59 0
-26 6 -54 14 -63 22 -26 83 -53 136 -60 67 -8 109 15 156 87 74 112 133 133
238 85 30 -14 68 -29 84 -33 29 -7 29 -7 22 30 -4 21 -10 44 -13 52 -12 31 28
12 64 -32 97 -116 98 -117 120 -106 35 19 51 78 46 160 -5 60 -3 76 12 92 21
23 55 26 93 6 29 -15 88 -73 81 -80 -2 -2 -32 -20 -66 -40 -64 -37 -83 -59
-83 -94 0 -15 11 -22 44 -31 77 -19 97 -72 47 -122 -23 -23 -38 -29 -71 -29
-52 0 -106 -23 -132 -55 -11 -14 -23 -25 -28 -25 -5 0 -44 25 -87 55 -105 74
-140 92 -193 99 -47 7 -54 5 -278 -81 -160 -62 -148 -48 -269 -313 -17 -36
-36 -90 -44 -120 -17 -70 -18 -249 0 -320 36 -146 115 -247 211 -270 64 -15
115 -7 218 37 46 20 99 39 119 43 81 19 127 -33 139 -156 5 -45 19 -95 41
-143 43 -97 43 -136 -3 -231 -52 -107 -65 -162 -53 -223 12 -65 12 -133 -1
-157 -13 -25 13 -40 70 -40 55 0 82 20 129 95 22 34 75 97 118 139 57 54 97
106 141 180 34 57 78 123 98 147 44 53 57 85 50 122 -8 38 44 170 141 360 111
215 109 232 -32 321 -64 40 -67 62 -6 58 24 -2 55 -8 67 -12 29 -11 30 -9 49
81 19 92 40 128 91 156 49 28 74 29 108 2 25 -20 26 -23 26 -139 0 -824 -498
-1591 -1259 -1938 -811 -370 -1769 -195 -2402 437 -282 283 -482 641 -572
1026 -92 394 -70 817 64 1201 70 203 209 453 347 627 62 76 81 94 67 60 -4
-10 -18 -58 -32 -108 -31 -113 -73 -201 -164 -340 -90 -138 -139 -242 -139
-292 0 -21 10 -67 22 -103 17 -52 21 -90 22 -195 1 -122 3 -133 29 -180 46
-83 65 -127 83 -187 23 -79 63 -124 148 -162 81 -38 97 -53 127 -121 12 -28
31 -58 43 -67 23 -19 101 -25 111 -8 13 21 35 10 34 -17 -1 -16 4 -41 10 -57
14 -35 10 -48 -39 -151 -22 -44 -42 -99 -46 -121 -9 -58 13 -213 36 -248 10
-16 49 -52 86 -80 98 -74 124 -110 131 -182 3 -42 13 -71 33 -99 37 -54 41
-86 24 -180 -20 -115 -18 -154 12 -213 51 -104 207 -206 332 -218 58 -6 62 -6
62 14 0 19 -51 72 -69 72 -21 0 -61 51 -61 78 0 39 14 49 93 66 106 22 144 58
182 176 25 75 38 93 93 123 85 46 122 100 122 177 0 68 13 86 69 100 87 21
114 86 72 169 -39 76 -120 131 -246 169 -84 25 -124 60 -167 147 -54 107 -56
109 -265 210 -249 121 -271 129 -378 123 l-84 -4 -17 39 c-10 22 -44 68 -76
104 -57 63 -58 64 -58 124 0 54 -3 64 -29 90 -21 21 -39 29 -65 29 -39 0 -76
36 -76 75 0 35 43 90 68 88 14 -2 22 3 22 12 0 26 46 37 84 21 25 -10 46 -35
85 -100 29 -47 56 -88 61 -91 5 -3 18 5 30 17 19 20 20 33 18 128 -3 95 -1
108 19 136 12 17 54 48 92 68 81 42 113 76 136 145 26 81 38 86 180 86 107 0
126 2 144 19 31 28 26 55 -16 92 -45 39 -40 56 28 93 91 49 119 71 119 93 0
12 -26 55 -57 96 -66 86 -210 202 -252 202 -46 0 -85 -33 -118 -101 -17 -35
-47 -82 -67 -104 -35 -39 -36 -39 -51 -21 -8 11 -15 27 -15 36 0 8 -16 48 -35
89 -40 84 -42 95 -16 137 20 32 51 48 115 59 23 4 49 17 65 34 14 15 38 32 54
39 18 8 36 30 54 67 29 60 55 75 92 55 31 -16 26 -52 -15 -106 -31 -40 -34
-50 -25 -68 19 -35 74 -66 115 -66 37 0 38 1 33 29 -6 30 5 41 42 41 26 0 71
38 71 60 0 10 -16 42 -36 71 -101 150 -99 198 11 272 50 34 61 34 73 -2 6 -16
30 -42 55 -59 49 -34 77 -83 77 -134 0 -18 -9 -71 -20 -118 -33 -144 -26 -196
30 -225 50 -26 67 -19 150 60 l79 75 74 -1 c88 -1 117 11 195 85 77 72 84 90
92 237 5 93 11 135 23 153 22 33 21 59 0 78 -27 23 -56 27 -132 17 -62 -7 -78
-5 -142 16 -40 14 -80 25 -90 25 -9 0 -51 -18 -93 -40 -41 -22 -84 -40 -96
-40 -11 0 -39 14 -63 31 -38 28 -47 30 -94 26 -31 -3 -83 -20 -125 -41 -114
-55 -146 -121 -114 -241 8 -32 14 -60 13 -61 -1 -1 -28 16 -60 37 -32 21 -70
39 -85 39 -36 0 -76 -28 -113 -79 -58 -78 -105 -87 -240 -45 -87 26 -156 33
-199 19 l-25 -8 20 23 c29 33 168 140 260 200 107 69 336 181 460 223 302 104
649 140 957 101z m-305 -194 c44 -16 67 -19 145 -13 116 7 129 -1 98 -68 -14
-32 -20 -66 -20 -126 0 -161 -32 -226 -148 -303 -40 -27 -54 -30 -119 -30 -88
0 -116 -12 -167 -75 -56 -67 -79 -80 -116 -65 -56 23 -62 60 -30 192 37 156
23 225 -61 285 -37 26 -50 43 -55 69 -7 38 -11 40 -59 20 -48 -21 -103 -64
-120 -95 l-13 -26 -7 28 c-19 73 38 148 139 186 99 37 125 37 175 1 37 -27 51
-32 85 -28 23 3 64 19 91 36 60 38 107 41 182 12z m1164 -102 c486 -292 852
-803 978 -1368 19 -84 52 -311 47 -317 -1 -2 -16 3 -33 9 -23 9 -41 8 -77 -2
-76 -21 -112 -76 -141 -218 -5 -26 -11 -32 -23 -27 -10 4 -45 9 -79 12 -59 5
-63 4 -63 -15 0 -30 46 -80 101 -107 94 -48 93 -82 -10 -284 -43 -86 -91 -187
-106 -226 -15 -38 -32 -75 -37 -82 -6 -8 -5 -24 3 -47 14 -39 9 -51 -61 -136
-20 -25 -59 -83 -86 -130 -32 -56 -74 -111 -124 -160 -42 -41 -95 -103 -118
-137 -48 -70 -85 -103 -118 -103 -48 0 -49 2 -49 153 l0 142 39 75 c55 107 59
172 17 263 -19 40 -35 97 -42 144 -25 183 -90 218 -262 141 -98 -43 -160 -56
-221 -46 -132 20 -216 177 -218 403 -1 147 19 214 132 440 39 78 55 90 177
135 43 16 105 40 138 54 78 33 155 35 207 3 30 -18 116 -76 194 -132 10 -7 25
1 56 32 38 37 50 42 108 48 55 6 69 12 97 40 44 44 46 93 3 128 -16 14 -43 28
-59 32 -27 6 -29 9 -19 30 6 13 33 35 62 51 55 29 86 53 86 65 0 14 -54 66
-90 88 -46 27 -97 27 -127 -1 -21 -19 -23 -30 -23 -109 0 -89 -13 -139 -36
-139 -7 0 -34 29 -60 65 -47 64 -101 102 -130 91 -9 -3 -13 -13 -10 -23 18
-60 19 -76 5 -71 -8 3 -44 18 -80 33 -51 21 -75 26 -103 21 -45 -9 -99 -55
-143 -123 -18 -29 -43 -57 -54 -64 -32 -17 -103 -13 -152 9 -49 22 -67 45 -67
87 0 33 30 45 113 45 74 1 97 15 97 59 0 37 -38 117 -69 145 -24 21 -26 43
-10 80 15 33 60 50 109 42 35 -5 40 -4 40 13 0 36 39 70 98 86 152 42 183 68
184 154 0 56 -11 82 -55 129 -20 20 -40 32 -58 32 -43 0 -54 -24 -54 -119 0
-86 0 -86 -25 -83 -42 6 -95 47 -120 95 -26 49 -26 51 21 124 13 20 22 53 24
86 3 63 31 109 77 128 24 10 44 8 120 -10 50 -13 101 -20 115 -17 31 8 46 49
38 102 -5 36 -17 52 -80 111 -49 45 -75 77 -75 91 0 12 2 22 5 22 3 0 37 -19
76 -42z m-1889 -209 c72 -48 121 -100 158 -169 11 -21 10 -26 -10 -42 -12 -10
-33 -18 -45 -18 -41 0 -55 -11 -55 -42 0 -28 -2 -30 -27 -23 -16 3 -40 18 -55
32 l-26 25 34 45 c57 75 39 143 -39 143 -29 0 -77 -41 -77 -66 0 -21 -51 -74
-71 -74 -11 0 -24 -11 -31 -25 -11 -25 -18 -28 -78 -40 -54 -11 -89 -33 -110
-68 -28 -45 -25 -81 14 -156 18 -36 37 -80 40 -97 4 -18 15 -39 26 -49 17 -15
20 -14 53 14 19 17 51 63 72 103 45 85 75 118 109 118 65 0 308 -238 290 -285
-3 -7 -41 -32 -84 -55 -45 -24 -82 -51 -86 -62 -10 -31 3 -62 36 -83 36 -24
35 -45 -3 -63 -22 -11 -42 -11 -102 -2 -122 18 -177 -8 -209 -98 -25 -69 -52
-99 -127 -138 -41 -22 -82 -52 -97 -73 -26 -33 -27 -39 -25 -142 2 -81 -1
-110 -11 -118 -12 -10 -22 2 -55 63 -23 41 -56 87 -74 102 -27 23 -37 26 -78
21 -43 -5 -48 -4 -51 15 -2 12 -9 23 -16 26 -10 3 -13 -5 -11 -32 3 -29 -3
-42 -29 -69 -74 -77 -47 -177 53 -191 24 -4 48 -13 54 -20 6 -7 14 -42 17 -77
7 -70 21 -100 66 -137 29 -24 88 -117 88 -138 0 -13 -43 -34 -69 -34 -29 0
-65 34 -80 76 -20 57 -57 92 -139 131 -85 41 -112 72 -141 165 -11 37 -39 102
-63 145 l-43 78 3 117 c2 102 -1 127 -23 194 -14 42 -25 91 -25 109 0 39 63
164 152 300 89 136 113 186 149 312 41 142 62 184 115 233 84 77 146 87 285
44 61 -18 100 -24 142 -21 58 3 59 4 125 75 39 41 76 72 87 72 10 0 54 -23 97
-51z m-342 -1965 c30 -9 115 -47 190 -84 74 -37 146 -71 160 -75 62 -20 97
-53 140 -137 59 -113 89 -139 204 -178 111 -37 166 -73 206 -137 50 -78 33
-137 -41 -149 -66 -11 -82 -31 -89 -112 -9 -88 -24 -113 -106 -164 -70 -44
-100 -87 -124 -178 -19 -73 -64 -107 -171 -129 -74 -16 -91 -29 -91 -73 0 -50
14 -71 72 -108 58 -37 65 -55 18 -47 -150 24 -313 154 -334 263 -3 18 1 76 10
128 18 107 12 159 -24 208 -12 17 -25 55 -30 87 -13 92 -38 129 -134 200 -81
60 -103 92 -112 158 -17 130 -11 171 36 268 45 93 49 113 35 212 -6 45 -5 52
11 56 41 10 123 6 174 -9z"/>
<path d="M3514 3649 c-10 -11 -32 -46 -49 -77 l-30 -56 -100 -32 c-55 -18
-108 -33 -118 -33 -23 -1 -70 -48 -62 -61 3 -6 51 -10 106 -10 60 0 99 -4 99
-10 0 -6 -7 -37 -17 -70 -15 -57 -18 -60 -52 -66 -54 -9 -61 -12 -55 -28 6
-15 35 -26 70 -26 11 0 33 -13 49 -30 31 -33 34 -34 54 -21 10 7 9 16 -9 48
l-23 39 38 57 c21 31 41 57 44 57 3 0 32 -34 65 -75 32 -41 65 -75 72 -75 32
0 25 48 -27 174 l-52 128 27 57 c44 90 23 168 -30 110z"/>
<path d="M2440 3400 c0 -5 15 -13 33 -18 17 -6 40 -13 50 -17 28 -12 21 20 -8
33 -31 14 -75 16 -75 2z"/>
<path d="M2370 3324 c-12 -32 -13 -84 -1 -84 5 0 12 17 15 38 4 20 9 45 12 55
8 27 -15 20 -26 -9z"/>
<path d="M1640 3310 c0 -19 40 -90 50 -90 15 0 12 17 -10 60 -19 38 -40 53
-40 30z"/>
<path d="M2527 3251 c-20 -57 -20 -61 -7 -61 12 0 40 65 40 91 0 34 -15 20
-33 -30z"/>
<path d="M2356 3171 c-6 -9 -3 -34 11 -83 2 -10 9 -18 14 -18 6 0 8 18 3 48
-7 50 -18 70 -28 53z"/>
<path d="M1740 3161 c0 -11 67 -71 80 -71 20 0 9 17 -29 48 -42 34 -51 38 -51
23z"/>
<path d="M2432 3106 c-31 -33 -41 -56 -24 -56 13 0 72 64 72 78 0 20 -14 14
-48 -22z"/>
<path d="M3251 3075 c-31 -35 -39 -55 -23 -55 8 0 34 26 60 62 26 33 -7 27
-37 -7z"/>
<path d="M1885 3059 c-6 -9 28 -27 84 -44 16 -5 22 -3 19 5 -6 18 -96 52 -103
39z"/>
<path d="M2280 3027 c-52 -14 -58 -34 -9 -28 39 4 69 17 69 31 0 12 -2 12 -60
-3z"/>
<path d="M2058 3014 c-16 -15 6 -24 58 -24 30 0 54 5 54 10 0 6 -15 10 -32 10
-18 0 -42 3 -53 6 -11 3 -24 2 -27 -2z"/>
<path d="M2448 2969 c23 -22 47 -37 53 -33 7 4 -3 19 -27 40 -56 48 -78 42
-26 -7z"/>
<path d="M3117 2955 c-34 -24 -48 -45 -29 -45 13 0 82 50 82 60 0 16 -13 12
-53 -15z"/>
<path d="M2560 2899 c0 -14 68 -41 94 -36 17 3 11 8 -27 25 -54 25 -67 27 -67
11z"/>
<path d="M2960 2882 c-53 -17 -54 -18 -46 -30 7 -11 106 17 106 29 0 15 -16
15 -60 1z"/>
<path d="M2730 2851 c0 -11 86 -25 100 -16 24 15 6 25 -45 25 -30 0 -55 -4
-55 -9z"/>
<path d="M1515 4076 c-95 -57 -114 -164 -52 -289 47 -94 128 -206 149 -207 19
0 110 125 152 208 47 93 45 183 -6 247 -52 66 -168 86 -243 41z m152 -108 c42
-39 27 -108 -27 -127 -82 -28 -141 66 -83 132 23 24 81 22 110 -5z"/>
</g>
</svg>
