<?xml version="1.0" standalone="no"?>
<!DOCTYPE svg PUBLIC "-//W3C//DTD SVG 20010904//EN"
 "http://www.w3.org/TR/2001/REC-SVG-20010904/DTD/svg10.dtd">
<svg version="1.0" xmlns="http://www.w3.org/2000/svg"
 width="488.000000pt" height="478.000000pt" viewBox="0 0 488.000000 478.000000"
 preserveAspectRatio="xMidYMid meet">

<g transform="translate(0.000000,478.000000) scale(0.100000,-0.100000)"
fill="#7b0180" stroke="none">
<path d="M1022 4511 c-92 -32 -165 -120 -205 -246 -19 -61 -22 -92 -22 -250 0
-162 3 -191 27 -285 47 -188 111 -339 192 -455 l42 -60 -26 -22 c-24 -20 -25
-25 -25 -135 0 -93 4 -126 24 -183 31 -92 90 -211 181 -365 40 -68 96 -172
124 -230 49 -102 51 -108 50 -190 0 -72 -10 -118 -62 -307 -103 -373 -142
-585 -142 -782 0 -138 6 -172 118 -631 6 -24 6 -23 10 7 2 17 -16 123 -40 235
-42 199 -43 207 -43 393 1 211 9 272 76 540 62 252 100 380 94 320 -23 -239
-25 -299 -15 -375 33 -243 113 -325 372 -382 98 -21 122 -22 478 -20 l375 2
190 -34 c105 -19 229 -38 277 -41 70 -5 94 -12 120 -31 18 -13 43 -31 55 -40
67 -48 177 75 217 242 l14 59 28 -60 c27 -57 29 -69 34 -245 4 -102 10 -194
15 -205 5 -11 34 -63 65 -115 32 -52 65 -108 73 -125 10 -18 16 -24 17 -13 0
9 -29 73 -65 143 l-65 126 0 143 c0 167 -11 237 -52 326 l-29 65 10 111 c6 60
11 163 11 229 l0 118 58 86 c32 47 87 140 122 206 98 187 159 268 450 595 178
199 290 386 361 600 24 75 32 118 36 205 6 125 -3 171 -46 235 -80 119 -218
122 -440 10 -156 -78 -498 -318 -757 -531 l-132 -108 -40 19 c-61 30 -216 54
-264 42 -34 -9 -47 -7 -91 13 -29 14 -97 31 -152 40 -166 26 -216 47 -289 121
-35 36 -72 64 -83 64 -15 0 -23 12 -36 58 -23 83 -123 280 -204 402 -131 196
-300 397 -446 527 -188 168 -393 237 -545 184z m281 -61 c107 -45 206 -117
324 -236 239 -243 469 -581 543 -798 22 -64 20 -76 -13 -76 -54 0 -164 -68
-260 -159 l-48 -46 7 40 c24 120 -7 258 -82 370 -77 115 -130 170 -329 345
-104 92 -210 193 -235 224 -44 55 -70 70 -70 42 0 -39 77 -264 125 -364 63
-130 116 -211 224 -335 132 -153 160 -222 121 -302 -40 -83 -129 -113 -231
-77 -32 11 -102 42 -156 68 -87 43 -105 56 -146 109 -92 121 -173 303 -219
499 -32 134 -33 401 -1 501 37 119 95 189 182 222 59 22 174 11 264 -27z m282
-735 c167 -166 231 -278 242 -419 10 -137 -43 -240 -149 -286 -73 -33 -206
-32 -293 0 -56 22 -135 65 -135 74 0 3 28 -7 63 -21 78 -32 178 -41 228 -19
47 20 95 75 110 127 25 81 -15 163 -156 319 -165 182 -240 317 -305 553 l-19
68 152 -143 c83 -79 201 -192 262 -253z m2825 -10 c35 -18 73 -67 89 -114 18
-56 14 -207 -10 -301 -59 -235 -187 -448 -434 -725 -159 -179 -273 -335 -339
-465 -54 -106 -135 -235 -142 -227 -2 2 10 35 26 74 43 102 63 233 57 373 -4
95 -11 137 -42 240 -41 137 -53 242 -36 308 l12 42 48 0 c156 0 230 38 396
205 89 89 150 141 193 165 87 49 96 55 88 68 -10 17 -127 15 -200 -4 -216 -54
-411 -181 -508 -331 l-41 -64 -56 6 c-63 8 -283 54 -291 62 -9 9 188 170 390
320 246 183 455 311 585 360 72 26 172 30 215 8z m-2243 -417 c-9 -13 -82 -93
-162 -178 -225 -238 -272 -319 -393 -672 -64 -187 -98 -264 -137 -312 l-23
-29 -5 34 c-3 19 -10 79 -16 134 -6 55 -20 156 -31 225 -11 69 -20 155 -20
191 0 63 2 69 33 95 18 16 90 61 161 99 120 65 139 80 265 204 75 73 156 147
181 164 45 31 151 79 159 72 2 -3 -3 -15 -12 -27z m1997 0 c-27 -18 -105 -89
-174 -159 -140 -141 -183 -165 -314 -176 l-68 -6 16 31 c27 51 121 146 197
197 107 72 284 141 368 144 20 1 16 -5 -25 -31z m-1840 -37 c76 -71 131 -93
286 -116 63 -9 133 -25 156 -34 l41 -18 17 -171 c25 -241 11 -318 -87 -462
-39 -57 -99 -130 -108 -130 -3 0 -11 24 -18 54 -7 30 -30 90 -51 135 -33 69
-45 83 -82 102 -81 42 -154 25 -236 -54 -35 -35 -48 -41 -80 -39 -40 2 -129
-36 -125 -53 4 -17 79 -17 119 0 43 18 41 18 76 -45 31 -55 153 -88 223 -61
28 11 67 -5 104 -43 l32 -33 -69 -134 c-48 -94 -91 -201 -144 -359 -103 -305
-133 -379 -176 -441 -36 -52 -40 -54 -92 -60 -83 -9 -189 -71 -177 -103 4 -9
14 -16 24 -16 34 0 123 28 160 50 44 26 54 24 172 -39 l94 -49 -109 -7 c-225
-16 -515 10 -638 55 -62 24 -128 69 -151 104 -25 38 -54 130 -66 210 -9 59 -8
108 5 238 9 90 16 191 16 225 0 59 3 65 49 126 70 91 90 136 166 367 112 339
150 402 406 667 81 83 150 161 154 172 11 35 42 24 109 -38z m-1174 -135 c114
-113 240 -166 394 -166 l91 0 -110 -60 c-63 -34 -127 -78 -149 -101 l-39 -41
6 -97 c5 -80 21 -195 52 -376 3 -18 -19 16 -53 80 -32 61 -81 148 -109 195
-67 112 -139 256 -165 328 -21 60 -36 220 -24 266 10 42 43 33 106 -28z m1938
-81 c78 -23 96 -56 89 -154 -3 -42 -14 -110 -23 -151 -10 -46 -17 -123 -18
-200 l-1 -126 37 -74 c21 -41 76 -129 123 -195 102 -141 150 -235 169 -327 7
-38 12 -68 10 -68 -2 0 -13 19 -25 41 -31 61 -101 125 -167 150 -68 26 -192
31 -264 10 -92 -27 -167 -118 -168 -205 0 -33 7 -45 40 -77 30 -28 40 -46 40
-69 0 -52 27 -98 98 -168 38 -37 74 -76 80 -87 10 -19 11 -19 74 2 34 12 77
24 93 28 75 16 164 115 134 151 -9 11 -8 14 5 14 9 0 28 11 41 25 l25 24 0
-72 c-1 -111 -25 -286 -49 -347 -30 -80 -82 -162 -113 -179 -44 -25 -58 -4
-58 89 0 96 -15 119 -97 146 -44 15 -87 19 -183 19 -121 0 -129 -1 -255 -44
-102 -34 -145 -44 -201 -45 -67 -1 -76 2 -197 61 -70 34 -127 65 -127 68 0 4
13 26 30 50 43 63 88 181 160 420 62 207 90 271 193 450 23 39 63 92 91 120
58 58 150 196 172 257 30 85 35 170 19 321 -8 78 -15 145 -15 150 0 13 185 7
238 -8z m281 -95 c53 -10 117 -21 143 -25 l46 -6 -10 -37 c-18 -63 -3 -187 36
-312 20 -63 42 -148 47 -190 13 -92 5 -231 -22 -340 -18 -77 -58 -185 -65
-177 -6 5 24 156 41 211 16 54 13 79 -20 146 -12 25 -30 71 -39 104 -20 67
-51 101 -102 111 -51 9 -78 -13 -122 -101 -44 -87 -38 -88 -98 26 -28 53 -29
60 -28 180 1 77 8 154 18 200 9 41 20 112 23 158 6 83 6 83 32 77 14 -4 68
-15 120 -25z m-1050 -380 c-25 -48 -22 -119 6 -150 17 -19 17 -20 1 -20 -29 0
-54 19 -86 65 l-30 44 60 51 c34 27 63 50 65 50 3 0 -5 -18 -16 -40z m112 7
c-42 -15 -72 -53 -73 -95 -1 -17 -5 -29 -11 -25 -5 3 -7 26 -4 51 6 56 34 82
86 81 l36 0 -34 -12z m50 -61 c13 -29 -6 -79 -33 -84 -24 -5 -59 33 -51 55 19
53 66 70 84 29z m-316 -6 c8 -13 -38 -30 -78 -29 l-32 1 40 19 c46 21 61 23
70 9z m415 -127 c0 -17 -11 -16 -38 5 -21 17 -22 18 -5 42 l17 24 13 -30 c6
-16 12 -35 13 -41z m768 -36 c-5 -28 -5 -60 1 -87 5 -25 8 -46 7 -48 -5 -4
-76 31 -76 38 0 7 70 140 74 140 2 0 -1 -19 -6 -43z m123 13 c10 -14 21 -45
24 -70 l5 -45 -14 48 c-7 27 -23 58 -34 70 -21 20 -22 20 -42 2 -21 -19 -29
-8 -8 13 19 19 48 11 69 -18z m-51 -115 c24 -26 22 -42 -4 -32 -16 7 -36 68
-35 107 1 18 3 14 9 -13 4 -20 17 -49 30 -62z m24 49 c3 -8 2 -12 -4 -9 -6 3
-10 10 -10 16 0 14 7 11 14 -7z m-70 -115 c28 -15 50 -20 78 -16 55 7 68 -15
68 -118 0 -100 -10 -185 -21 -185 -5 0 -9 8 -9 17 0 30 -78 176 -140 261 -33
46 -60 86 -60 89 0 3 10 -2 23 -11 12 -9 40 -25 61 -37z m181 -21 c3 -18 2
-26 -1 -18 -4 8 -15 26 -24 40 -9 14 -15 31 -13 38 7 20 32 -20 38 -60z m-282
-244 c66 -22 131 -84 168 -159 29 -59 30 -66 19 -102 -13 -39 -37 -73 -52 -73
-12 0 -10 38 3 62 15 29 -10 53 -45 44 -46 -11 -67 -42 -64 -89 2 -35 9 -45
35 -62 18 -11 32 -25 33 -32 0 -25 -53 -73 -93 -84 -23 -6 -63 -18 -89 -26
l-47 -14 -80 78 c-62 62 -81 87 -86 117 -4 20 -6 39 -3 41 2 2 28 -2 58 -10
74 -20 139 -19 162 2 27 24 24 84 -7 117 -35 38 -71 34 -135 -14 -61 -45 -94
-50 -134 -19 -59 47 -17 166 77 216 68 35 189 38 280 7z m-113 -218 c21 -26 8
-61 -24 -64 -35 -4 -96 6 -96 16 1 13 73 62 90 62 10 0 23 -7 30 -14z m200
-92 c0 -21 -4 -33 -10 -29 -17 10 -11 65 7 65 2 0 3 -16 3 -36z m-187 -422
l47 -21 0 -64 0 -65 -37 13 c-21 7 -87 18 -148 24 -60 6 -170 23 -244 38 -150
30 -150 25 4 74 82 26 101 29 210 26 96 -3 129 -7 168 -25z"/>
</g>
</svg>
