<?xml version="1.0" standalone="no"?>
<!DOCTYPE svg PUBLIC "-//W3C//DTD SVG 20010904//EN"
 "http://www.w3.org/TR/2001/REC-SVG-20010904/DTD/svg10.dtd">
<svg version="1.0" xmlns="http://www.w3.org/2000/svg"
 width="840.000000pt" height="561.000000pt" viewBox="0 0 840.000000 561.000000"
 preserveAspectRatio="xMidYMid meet">

<g transform="translate(0.000000,561.000000) scale(0.100000,-0.100000)"
fill="#000000" stroke="none">
<path d="M4702 5126 c-86 -90 -169 -194 -258 -322 -76 -110 -52 -102 -224 -64
-212 47 -458 35 -646 -31 l-84 -30 -31 25 c-16 14 -74 67 -128 117 -134 124
-239 201 -346 255 -99 49 -195 71 -239 54 -14 -5 -26 -11 -26 -12 0 -2 36 -3
79 -3 74 0 84 -3 172 -48 109 -55 189 -113 331 -240 121 -109 158 -145 158
-156 0 -5 -24 -23 -52 -40 -29 -17 -64 -40 -77 -51 -43 -37 -16 -30 44 11 75
51 166 93 275 126 79 25 99 27 285 27 182 0 211 -2 319 -27 87 -19 123 -24
133 -16 7 6 45 57 85 113 89 125 130 176 236 294 100 110 95 124 -6 18z"/>
<path d="M5101 5175 c39 -45 191 -251 234 -319 91 -143 160 -313 180 -446 18
-114 19 -330 4 -435 -10 -66 -14 -76 -30 -72 -12 3 1 -19 37 -67 98 -129 172
-295 211 -479 23 -108 24 -308 1 -393 -43 -158 -229 -371 -457 -522 -132 -87
-398 -217 -535 -261 -226 -73 -513 -121 -727 -121 -261 0 -625 45 -811 100
-361 108 -682 382 -797 680 -70 181 -62 282 38 472 66 126 100 219 131 356 33
151 70 225 188 380 13 17 20 32 15 32 -5 0 -33 -31 -63 -70 -30 -38 -58 -66
-61 -62 -10 10 -36 140 -54 265 -30 210 -16 624 26 744 25 75 18 79 -10 6 -73
-189 -65 -764 14 -1004 15 -45 15 -47 -14 -106 -17 -33 -46 -122 -65 -199 -38
-150 -75 -249 -135 -359 -53 -96 -74 -167 -74 -245 0 -133 58 -279 167 -425
90 -120 134 -164 241 -244 184 -139 351 -216 550 -256 50 -10 94 -21 98 -25 5
-4 -7 -51 -27 -103 -20 -53 -36 -102 -36 -109 1 -7 16 28 34 77 51 142 44 134
118 118 35 -7 174 -21 310 -30 282 -20 366 -15 648 37 198 36 286 60 403 107
108 44 104 45 237 -87 100 -99 205 -245 260 -361 17 -35 28 -53 24 -39 -23 93
-174 308 -308 438 l-103 100 91 47 c223 115 349 204 486 345 110 112 186 230
212 329 24 94 23 266 -2 392 -35 171 -105 336 -194 456 -39 54 -44 66 -36 88
24 63 34 242 22 395 -14 174 -41 272 -119 425 -71 140 -243 386 -315 450 l-33
30 26 -30z"/>
<path d="M2688 5093 c-18 -21 -31 -43 -25 -43 2 0 13 14 25 30 25 33 24 41 0
13z"/>
<path d="M3005 3750 c-91 -50 -158 -152 -171 -262 -5 -48 -3 -63 17 -97 12
-23 27 -41 32 -41 4 0 -1 12 -12 26 -24 30 -28 91 -10 145 12 34 87 144 95
137 2 -2 -8 -26 -21 -53 -20 -39 -25 -63 -25 -126 l0 -77 31 -4 c18 -3 45 1
60 9 16 8 37 13 47 10 11 -3 1 -11 -33 -27 -27 -12 -51 -27 -53 -31 -2 -5 -10
-9 -18 -9 -8 0 -14 -9 -14 -20 0 -24 43 -47 155 -83 102 -33 152 -40 209 -32
41 6 46 11 57 43 30 90 -15 295 -88 400 -70 102 -172 138 -258 92z m80 -125
c49 -48 15 -125 -53 -125 -61 0 -85 78 -37 125 31 32 59 32 90 0z m193 -207
c16 -16 15 -49 -3 -75 -13 -18 -13 -22 0 -33 22 -18 18 -36 -11 -59 -32 -25
-72 -26 -145 -5 -76 22 -99 39 -99 72 0 55 36 65 107 31 57 -28 77 -23 81 21
6 55 40 78 70 48z"/>
<path d="M4315 3746 c-108 -49 -187 -194 -184 -339 1 -38 2 -35 18 33 17 75
29 103 65 150 15 19 17 20 12 5 -12 -31 -19 -168 -12 -209 6 -32 10 -36 36
-36 17 0 34 8 43 20 15 21 64 50 86 50 16 0 -53 -57 -79 -65 -11 -3 -26 -20
-35 -37 -13 -28 -13 -34 0 -52 42 -60 35 -58 111 -33 67 21 68 22 31 25 -68 6
-91 83 -33 111 24 11 38 11 82 1 46 -11 56 -11 78 3 21 14 24 22 19 50 -3 24
0 38 12 50 24 24 48 21 81 -11 28 -26 28 -28 11 -46 -14 -13 -16 -21 -8 -29
18 -18 12 -55 -11 -72 -23 -16 -22 -17 12 -10 80 17 164 48 186 70 19 19 24
35 24 76 0 125 -115 241 -289 293 -67 20 -214 21 -256 2z m74 -132 c12 -15 21
-33 21 -40 0 -31 -27 -67 -63 -86 -33 -16 -44 -18 -67 -8 -36 15 -53 60 -39
98 24 64 110 85 148 36z m271 -84 c25 -19 25 -20 3 -20 -12 0 -27 9 -33 20
-13 25 -2 25 30 0z m147 -92 c4 -32 1 -47 -11 -57 -14 -12 -16 -7 -16 55 0 77
19 79 27 2z"/>
<path d="M3285 3018 l-60 -63 63 60 c58 55 67 65 59 65 -1 0 -29 -28 -62 -62z"/>
<path d="M3404 3016 c-17 -8 -48 -30 -68 -50 -49 -49 -50 -99 -4 -151 39 -45
133 -118 180 -141 35 -16 36 -16 108 21 39 21 96 61 126 90 54 50 54 51 54
111 0 113 -37 134 -232 134 -89 -1 -143 -5 -164 -14z m303 -89 c26 -26 11 -28
-66 -9 -40 10 -69 21 -64 26 13 13 113 1 130 -17z m-302 -2 c-59 -17 -83 -19
-69 -6 12 12 41 19 84 19 32 1 31 0 -15 -13z"/>
<path d="M3195 2909 c-4 -6 -5 -12 -2 -15 2 -3 7 2 10 11 7 17 1 20 -8 4z"/>
<path d="M3183 2820 c0 -36 2 -50 4 -32 2 17 2 47 0 65 -2 17 -4 3 -4 -33z"/>
<path d="M4197 2753 c-4 -3 -7 -19 -7 -34 0 -54 -152 -213 -245 -255 -73 -34
-123 -27 -275 35 l-115 48 -25 -25 c-14 -13 -38 -30 -55 -38 -23 -10 -26 -13
-10 -14 11 0 31 7 44 16 36 26 47 6 31 -59 -9 -40 -10 -59 -1 -75 25 -47 130
-35 266 32 50 24 105 49 124 55 67 21 164 108 248 219 30 41 52 80 49 88 -6
15 -18 18 -29 7z"/>
<path d="M3191 2734 c0 -11 3 -14 6 -6 3 7 2 16 -1 19 -3 4 -6 -2 -5 -13z"/>
<path d="M3205 2690 c10 -35 51 -105 86 -145 29 -33 102 -75 130 -75 8 0 -8
11 -36 24 -62 29 -105 74 -151 156 -19 36 -32 54 -29 40z"/>
<path d="M3542 2620 c0 -14 2 -19 5 -12 2 6 2 18 0 25 -3 6 -5 1 -5 -13z"/>
<path d="M3461 2294 c-2 -53 79 -144 128 -144 8 0 -5 10 -29 23 -52 26 -80 62
-90 114 -7 36 -8 36 -9 7z"/>
<path d="M3331 1854 c0 -11 3 -14 6 -6 3 7 2 16 -1 19 -3 4 -6 -2 -5 -13z"/>
<path d="M3321 1814 c0 -11 3 -14 6 -6 3 7 2 16 -1 19 -3 4 -6 -2 -5 -13z"/>
<path d="M3311 1774 c0 -11 3 -14 6 -6 3 7 2 16 -1 19 -3 4 -6 -2 -5 -13z"/>
<path d="M3302 1730 c0 -14 2 -19 5 -12 2 6 2 18 0 25 -3 6 -5 1 -5 -13z"/>
<path d="M3292 1680 c0 -14 2 -19 5 -12 2 6 2 18 0 25 -3 6 -5 1 -5 -13z"/>
<path d="M5382 1670 c3 -8 13 -45 23 -83 10 -37 20 -65 22 -63 6 5 -34 146
-43 155 -4 3 -5 -1 -2 -9z"/>
<path d="M3282 1620 c0 -19 2 -27 5 -17 2 9 2 25 0 35 -3 9 -5 1 -5 -18z"/>
<path d="M3273 1520 c0 -30 2 -43 4 -27 2 15 2 39 0 55 -2 15 -4 2 -4 -28z"/>
<path d="M5431 1494 c0 -11 3 -14 6 -6 3 7 2 16 -1 19 -3 4 -6 -2 -5 -13z"/>
<path d="M5442 1445 c0 -16 2 -22 5 -12 2 9 2 23 0 30 -3 6 -5 -1 -5 -18z"/>
<path d="M3263 1350 c0 -47 2 -66 4 -42 2 23 2 61 0 85 -2 23 -4 4 -4 -43z"/>
<path d="M5452 1338 c-2 -66 -5 -77 -21 -83 -33 -10 -81 -73 -81 -105 0 -16 5
-32 10 -35 8 -5 8 -11 0 -20 -6 -7 -13 -35 -17 -63 -7 -64 11 -120 41 -128 13
-3 29 -19 37 -37 12 -27 20 -33 51 -35 37 -3 39 -2 87 75 67 105 98 142 127
149 41 10 57 -12 50 -69 -8 -53 4 -56 24 -7 10 23 10 37 2 55 -10 20 -9 25 3
25 25 0 17 19 -10 26 -32 8 -105 -19 -132 -49 -11 -12 -39 -55 -62 -95 -23
-40 -53 -79 -67 -88 -23 -15 -26 -15 -43 0 -26 23 -32 53 -15 67 8 7 25 26 37
43 20 30 20 30 -21 -6 -47 -43 -67 -47 -82 -19 -25 49 1 170 37 172 12 0 9 4
-9 11 -41 14 -37 52 8 94 25 24 45 34 67 34 29 1 30 2 15 14 -27 20 -22 51 13
80 25 22 41 26 89 26 54 0 61 -2 74 -27 l15 -28 1 27 c0 14 3 33 6 42 21 54
158 -32 176 -109 4 -17 7 -14 18 13 28 75 100 3 100 -100 0 -58 0 -59 28 -56
27 3 27 2 26 -52 -1 -70 -22 -110 -93 -184 -45 -47 -51 -57 -31 -51 14 4 32
11 40 16 13 7 13 8 0 9 -9 0 -1 14 22 38 54 56 71 98 72 172 1 64 0 65 -26 68
-26 3 -28 7 -28 49 0 84 -67 164 -106 126 -15 -16 -18 -15 -43 14 -55 65 -152
97 -166 54 -5 -16 -10 -17 -44 -8 -43 12 -122 -5 -142 -29 -19 -23 -28 -16
-32 24 -2 20 -4 2 -5 -40z"/>
<path d="M5102 1367 c-55 -29 -126 -99 -160 -156 l-27 -46 -5 47 c-10 85 -17
61 -23 -79 -4 -117 -11 -158 -41 -264 -44 -160 -128 -384 -173 -461 -2 -5 2
-8 10 -8 8 0 20 13 27 29 10 24 24 34 73 50 60 21 60 21 74 1 22 -31 87 -60
134 -60 52 0 112 28 171 79 23 20 72 51 108 68 36 17 93 54 127 81 l62 51 48
-21 c34 -15 69 -22 119 -22 82 -1 111 13 91 45 -6 10 -21 19 -32 19 -17 -1
-16 -3 8 -16 15 -8 25 -19 22 -24 -17 -28 -167 -17 -227 18 -25 15 -28 14 -95
-36 -38 -28 -91 -60 -117 -72 -44 -18 -48 -19 -41 -3 11 27 45 165 45 186 0
25 -55 139 -77 159 -27 25 -67 31 -120 19 -26 -6 -60 -13 -74 -16 -15 -2 -50
-21 -79 -40 -29 -20 -54 -34 -55 -33 -3 4 32 195 47 255 15 60 82 157 136 196
55 40 134 72 157 64 8 -4 15 -2 15 3 0 18 -85 9 -128 -13z m93 -458 c22 -21
28 -102 11 -149 -8 -22 -7 -23 7 -12 9 7 19 28 23 45 l7 32 7 -26 c4 -14 3
-52 -2 -85 -17 -112 -65 -185 -157 -245 -36 -23 -56 -29 -100 -29 -72 0 -111
24 -141 85 -49 101 -4 295 82 352 43 29 94 47 113 39 18 -6 20 -49 4 -78 -6
-11 -8 -22 -5 -25 8 -9 36 62 36 91 0 18 6 26 23 29 34 6 70 -3 92 -24z m-371
-380 c6 -12 -1 -19 -25 -28 -58 -20 -59 -16 -26 69 l32 80 6 -53 c4 -28 10
-59 13 -68z"/>
<path d="M3418 1267 c-17 -40 -8 -211 15 -314 l23 -102 -35 31 c-41 36 -106
67 -140 68 -45 0 -91 23 -98 48 -9 36 3 89 32 138 29 50 52 57 58 17 3 -20 4
-15 6 15 0 23 -3 42 -9 42 -5 0 -24 -15 -43 -33 -36 -36 -58 -97 -61 -166 -2
-35 -8 -48 -30 -63 -14 -11 -41 -50 -58 -87 -30 -65 -31 -67 -19 -140 6 -40
19 -92 29 -115 25 -54 102 -132 155 -156 77 -36 172 -19 217 37 l18 24 59 -20
c54 -18 80 -42 97 -86 2 -5 7 -7 11 -3 4 4 -15 58 -43 120 -103 231 -162 453
-171 638 -3 71 -9 117 -13 107z m-201 -323 c16 -4 23 -16 27 -49 4 -23 14 -51
22 -61 14 -18 15 -18 7 6 -4 14 -7 39 -8 55 0 28 3 30 33 28 58 -2 123 -51
157 -118 27 -53 30 -68 30 -154 0 -79 -4 -102 -20 -131 -43 -72 -139 -95 -220
-53 -52 27 -121 102 -145 157 -23 52 -40 151 -31 184 6 23 8 22 24 -18 20 -51
34 -47 17 5 -18 56 -4 113 34 136 34 21 40 22 73 13z m333 -367 c18 -42 31
-80 28 -82 -7 -8 -83 21 -82 31 2 31 17 134 19 132 2 -2 18 -38 35 -81z"/>
<path d="M3281 1104 c0 -11 3 -14 6 -6 3 7 2 16 -1 19 -3 4 -6 -2 -5 -13z"/>
<path d="M3911 935 c1 -19 18 -51 18 -35 0 8 -4 22 -9 30 -5 8 -9 11 -9 5z"/>
<path d="M4372 853 c-6 -38 -15 -140 -21 -227 -7 -107 -15 -162 -24 -168 -6
-4 -57 -9 -112 -10 l-100 -2 90 -3 c112 -4 135 -9 136 -31 0 -10 4 -5 9 10 4
15 13 119 19 233 6 113 14 219 18 235 3 17 3 30 0 30 -3 0 -10 -30 -15 -67z"/>
<path d="M3935 845 c3 -22 12 -128 20 -235 8 -107 15 -199 16 -205 0 -5 4 1 8
15 6 22 14 26 61 31 40 4 46 6 20 8 -76 3 -77 5 -85 94 -12 159 -26 273 -35
302 -9 27 -10 26 -5 -10z"/>
<path d="M5976 865 c4 -11 -6 -30 -27 -53 l-34 -37 38 34 c37 35 45 55 27 66
-6 3 -7 -1 -4 -10z"/>
<path d="M5870 760 c-19 -11 -31 -19 -27 -20 11 0 67 29 67 35 0 7 -1 7 -40
-15z"/>
<path d="M5745 720 c-25 -11 1 -11 35 0 20 6 21 8 5 8 -11 0 -29 -3 -40 -8z"/>
</g>
</svg>
