<?xml version="1.0" standalone="no"?>
<!DOCTYPE svg PUBLIC "-//W3C//DTD SVG 20010904//EN"
 "http://www.w3.org/TR/2001/REC-SVG-20010904/DTD/svg10.dtd">
<svg version="1.0" xmlns="http://www.w3.org/2000/svg"
 width="652.000000pt" height="156.000000pt" viewBox="0 0 652.000000 156.000000"
 preserveAspectRatio="xMidYMid meet">

<g transform="translate(0.000000,156.000000) scale(0.100000,-0.100000)"
fill="#000000" stroke="none">
<path d="M560 1259 c-130 -22 -261 -121 -319 -242 -61 -127 -59 -263 4 -394
78 -158 244 -254 420 -240 365 28 538 471 288 738 -106 113 -245 162 -393 138z"/>
<path d="M3953 1231 c-130 -39 -155 -51 -107 -51 52 0 67 -20 72 -95 l4 -67
-33 8 c-64 17 -146 7 -200 -23 -100 -54 -151 -147 -157 -289 -5 -108 12 -179
58 -243 69 -95 200 -109 283 -30 22 22 42 39 44 39 1 0 3 -16 3 -35 l0 -35
123 0 122 0 -31 19 c-23 14 -33 29 -37 57 -4 22 -7 207 -7 412 0 204 -3 372
-7 371 -5 -1 -63 -18 -130 -38z m-57 -245 c18 -14 19 -28 19 -241 0 -213 -1
-227 -19 -241 -23 -16 -69 -18 -96 -4 -10 5 -26 24 -37 42 -71 121 -51 378 36
445 22 17 73 16 97 -1z"/>
<path d="M4263 1255 c-97 -42 -68 -185 37 -185 88 0 132 95 73 159 -34 37 -68
45 -110 26z"/>
<path d="M1278 1220 c-39 -21 -83 -79 -111 -145 -90 -218 -38 -547 103 -643
53 -36 119 -27 170 23 131 128 160 452 57 654 -56 112 -139 154 -219 111z"/>
<path d="M2005 1230 c3 -5 13 -10 20 -10 8 0 21 -13 30 -30 13 -24 15 -84 15
-370 0 -214 -4 -348 -10 -360 -6 -11 -23 -26 -38 -34 -25 -14 -21 -15 68 -15
88 0 93 1 64 13 -17 8 -34 21 -38 31 -3 9 -6 159 -6 333 l0 317 148 -347 c80
-192 151 -348 157 -348 6 0 79 161 163 358 l152 357 0 -327 c0 -179 -3 -334
-6 -343 -4 -10 -21 -23 -38 -31 -28 -12 -13 -13 134 -13 147 0 162 1 134 13
-17 8 -34 21 -38 31 -11 29 -7 714 5 736 5 11 22 25 37 32 23 10 9 12 -97 15
-68 1 -127 -1 -131 -5 -4 -4 -56 -123 -115 -263 -59 -140 -110 -258 -114 -262
-4 -5 -58 114 -121 262 l-114 270 -134 0 c-86 0 -131 -4 -127 -10z"/>
<path d="M1664 1174 c-46 -69 -68 -372 -40 -550 29 -191 74 -228 113 -92 21
74 30 404 13 506 -22 136 -54 186 -86 136z"/>
<path d="M3189 1033 c-50 -8 -132 -66 -161 -113 -84 -137 -71 -338 27 -448
120 -134 334 -99 403 66 38 91 37 138 -2 72 -21 -36 -78 -76 -121 -84 -37 -8
-110 16 -143 47 -35 32 -62 91 -69 148 l-6 49 187 0 186 0 0 34 c0 78 -50 162
-118 199 -47 25 -131 39 -183 30z m111 -57 c23 -25 39 -83 40 -143 l0 -33
-106 0 -107 0 6 49 c15 125 105 192 167 127z"/>
<path d="M5449 1031 c-45 -14 -70 -32 -89 -64 l-20 -32 0 48 c0 27 -5 47 -11
47 -23 0 -229 -65 -229 -72 0 -4 6 -8 13 -8 8 0 21 -8 30 -18 15 -16 17 -50
17 -270 l0 -252 116 0 117 0 -27 21 -26 20 0 229 c0 208 2 230 19 251 23 28
83 32 109 6 15 -16 17 -46 20 -272 l3 -255 116 0 116 0 -27 21 -26 20 0 229
c0 208 2 230 19 251 26 32 86 32 112 0 17 -21 19 -44 19 -272 l0 -249 128 0
c118 1 125 2 95 15 -19 8 -34 23 -37 37 -3 13 -7 122 -8 243 -3 200 -5 223
-23 255 -60 101 -224 102 -292 1 l-23 -33 -9 23 c-24 64 -124 103 -202 80z"/>
<path d="M4258 997 c-100 -28 -136 -47 -89 -47 11 0 27 -10 35 -22 14 -19 16
-62 16 -270 l0 -248 128 0 c115 1 124 2 96 14 -17 8 -34 21 -38 31 -3 9 -6
142 -6 296 0 259 -1 279 -17 278 -10 -1 -66 -15 -125 -32z"/>
<path d="M4558 997 c-100 -28 -136 -47 -89 -47 44 0 51 -32 51 -231 0 -194 7
-236 44 -278 63 -71 195 -67 258 8 15 17 29 31 32 31 3 0 6 -16 6 -35 l0 -35
123 0 122 0 -32 20 -33 20 0 290 c0 200 -3 290 -11 290 -19 0 -229 -64 -229
-70 0 -3 10 -10 22 -15 32 -14 36 -39 37 -236 1 -200 -4 -215 -71 -225 -30 -5
-41 -2 -62 19 l-26 26 0 251 c0 232 -1 250 -17 249 -10 -1 -66 -15 -125 -32z"/>
</g>
</svg>
