<?xml version="1.0" standalone="no"?>
<!DOCTYPE svg PUBLIC "-//W3C//DTD SVG 20010904//EN"
 "http://www.w3.org/TR/2001/REC-SVG-20010904/DTD/svg10.dtd">
<svg version="1.0" xmlns="http://www.w3.org/2000/svg"
 width="493.000000pt" height="506.000000pt" viewBox="0 0 493.000000 506.000000"
 preserveAspectRatio="xMidYMid meet">

<g transform="translate(0.000000,506.000000) scale(0.100000,-0.100000)"
fill="#7b0180" stroke="none">
<path d="M1110 2575 l0 -1927 33 20 c17 10 424 271 902 579 479 308 1131 728
1450 932 319 205 586 379 593 386 11 10 -13 30 -132 106 -233 150 -2120 1364
-2471 1589 -176 113 -332 214 -347 224 l-28 18 0 -1927z m914 925 c295 -190
592 -381 660 -425 69 -44 269 -172 445 -285 176 -113 320 -209 321 -215 0 -5
-375 -251 -833 -545 -457 -294 -897 -577 -977 -629 -80 -52 -153 -96 -162 -99
-17 -4 -18 61 -18 1273 0 1086 2 1276 14 1273 8 -2 255 -158 550 -348z"/>
</g>
</svg>
